<?xml version="1.0" encoding="utf-8" standalone="no"?>
<!DOCTYPE svg PUBLIC "-//W3C//DTD SVG 1.1//EN"
  "http://www.w3.org/Graphics/SVG/1.1/DTD/svg11.dtd">
<!-- Created with matplotlib (https://matplotlib.org/) -->
<svg height="334.282031pt" version="1.1" viewBox="0 0 1051.937031 334.282031" width="1051.937031pt" xmlns="http://www.w3.org/2000/svg" xmlns:xlink="http://www.w3.org/1999/xlink">
 <defs>
  <style type="text/css">
*{stroke-linecap:butt;stroke-linejoin:round;}
  </style>
 </defs>
 <g id="figure_1">
  <g id="patch_1">
   <path d="M 0 334.282031 
L 1051.937031 334.282031 
L 1051.937031 0 
L 0 0 
z
" style="fill:#ffffff;"/>
  </g>
  <g id="axes_1">
   <g id="patch_2">
    <path d="M 40.337031 297.684063 
L 496.882486 297.684063 
L 496.882486 20.484063 
L 40.337031 20.484063 
z
" style="fill:#ffffff;"/>
   </g>
   <g id="matplotlib.axis_1">
    <g id="xtick_1">
     <g id="line2d_1">
      <defs>
       <path d="M 0 0 
L 0 3.5 
" id="me47c9e2a09" style="stroke:#000000;stroke-width:0.8;"/>
      </defs>
      <g>
       <use style="stroke:#000000;stroke-width:0.8;" x="61.089097" xlink:href="#me47c9e2a09" y="297.684063"/>
      </g>
     </g>
     <g id="text_1">
      <!-- 0.0 -->
      <defs>
       <path d="M 46.34375 33.109375 
Q 46.34375 23.1875 43.5625 14.59375 
Q 41.890625 9.328125 39.078125 5.953125 
Q 36.28125 2.59375 32.71875 0.609375 
Q 29.15625 -1.375 24.953125 -1.375 
Q 20.171875 -1.375 16.3125 1.0625 
Q 12.453125 3.515625 9.46875 8.0625 
Q 7.328125 11.375 5.71875 16.890625 
Q 3.609375 24.359375 3.609375 32.328125 
Q 3.609375 43.109375 6.640625 52.15625 
Q 9.125 59.625 14.203125 63.59375 
Q 19.28125 67.578125 24.953125 67.578125 
Q 30.71875 67.578125 35.71875 63.640625 
Q 40.71875 59.71875 43.0625 53.078125 
Q 46.34375 43.953125 46.34375 33.109375 
z
M 31.296875 33.203125 
Q 31.296875 50.59375 31.109375 53.46875 
Q 30.609375 60.25 28.765625 62.640625 
Q 27.546875 64.203125 24.8125 64.203125 
Q 22.703125 64.203125 21.484375 63.03125 
Q 19.671875 61.328125 19.03125 57 
Q 18.40625 52.6875 18.40625 26.859375 
Q 18.40625 12.796875 19.390625 8.015625 
Q 20.125 4.546875 21.484375 3.375 
Q 22.859375 2.203125 25.09375 2.203125 
Q 27.546875 2.203125 28.765625 3.765625 
Q 30.8125 6.5 31.109375 12.203125 
z
" id="TimesNewRomanPS-BoldMT-48"/>
       <path d="M 12.5 15.046875 
Q 15.921875 15.046875 18.28125 12.640625 
Q 20.65625 10.25 20.65625 6.890625 
Q 20.65625 3.515625 18.265625 1.140625 
Q 15.875 -1.21875 12.5 -1.21875 
Q 9.125 -1.21875 6.75 1.140625 
Q 4.390625 3.515625 4.390625 6.890625 
Q 4.390625 10.25 6.75 12.640625 
Q 9.125 15.046875 12.5 15.046875 
z
" id="TimesNewRomanPS-BoldMT-46"/>
      </defs>
      <g transform="translate(54.839097 311.305938)scale(0.1 -0.1)">
       <use xlink:href="#TimesNewRomanPS-BoldMT-48"/>
       <use x="50" xlink:href="#TimesNewRomanPS-BoldMT-46"/>
       <use x="75" xlink:href="#TimesNewRomanPS-BoldMT-48"/>
      </g>
     </g>
    </g>
    <g id="xtick_2">
     <g id="line2d_2">
      <g>
       <use style="stroke:#000000;stroke-width:0.8;" x="144.097362" xlink:href="#me47c9e2a09" y="297.684063"/>
      </g>
     </g>
     <g id="text_2">
      <!-- 0.2 -->
      <defs>
       <path d="M 41.40625 0 
L 2.4375 0 
L 2.4375 1.078125 
Q 20.359375 22.40625 24.1875 29.78125 
Q 28.03125 37.15625 28.03125 44.1875 
Q 28.03125 49.3125 24.859375 52.703125 
Q 21.6875 56.109375 17.09375 56.109375 
Q 9.578125 56.109375 5.421875 48.578125 
L 3.609375 49.21875 
Q 6.25 58.59375 11.625 63.078125 
Q 17 67.578125 24.03125 67.578125 
Q 29.046875 67.578125 33.203125 65.234375 
Q 37.359375 62.890625 39.703125 58.8125 
Q 42.046875 54.734375 42.046875 51.171875 
Q 42.046875 44.671875 38.421875 37.984375 
Q 33.5 28.953125 16.890625 12.796875 
L 31.203125 12.796875 
Q 36.46875 12.796875 38.0625 13.234375 
Q 39.65625 13.671875 40.671875 14.71875 
Q 41.703125 15.765625 43.359375 19.140625 
L 45.125 19.140625 
z
" id="TimesNewRomanPS-BoldMT-50"/>
      </defs>
      <g transform="translate(137.847362 311.305938)scale(0.1 -0.1)">
       <use xlink:href="#TimesNewRomanPS-BoldMT-48"/>
       <use x="50" xlink:href="#TimesNewRomanPS-BoldMT-46"/>
       <use x="75" xlink:href="#TimesNewRomanPS-BoldMT-50"/>
      </g>
     </g>
    </g>
    <g id="xtick_3">
     <g id="line2d_3">
      <g>
       <use style="stroke:#000000;stroke-width:0.8;" x="227.105626" xlink:href="#me47c9e2a09" y="297.684063"/>
      </g>
     </g>
     <g id="text_3">
      <!-- 0.4 -->
      <defs>
       <path d="M 2.484375 24.953125 
L 33.9375 67.578125 
L 39.890625 67.578125 
L 39.890625 24.953125 
L 45.953125 24.953125 
L 45.953125 14.84375 
L 39.890625 14.84375 
L 39.890625 0 
L 26.46875 0 
L 26.46875 14.84375 
L 2.484375 14.84375 
z
M 7.234375 24.953125 
L 26.46875 24.953125 
L 26.46875 51.078125 
z
" id="TimesNewRomanPS-BoldMT-52"/>
      </defs>
      <g transform="translate(220.855626 311.305938)scale(0.1 -0.1)">
       <use xlink:href="#TimesNewRomanPS-BoldMT-48"/>
       <use x="50" xlink:href="#TimesNewRomanPS-BoldMT-46"/>
       <use x="75" xlink:href="#TimesNewRomanPS-BoldMT-52"/>
      </g>
     </g>
    </g>
    <g id="xtick_4">
     <g id="line2d_4">
      <g>
       <use style="stroke:#000000;stroke-width:0.8;" x="310.113891" xlink:href="#me47c9e2a09" y="297.684063"/>
      </g>
     </g>
     <g id="text_4">
      <!-- 0.6 -->
      <defs>
       <path d="M 46.96875 67.578125 
L 46.96875 66.21875 
Q 38.140625 63.96875 32.78125 60.421875 
Q 27.4375 56.890625 24.328125 51.828125 
Q 21.234375 46.78125 19.53125 39.3125 
Q 21.6875 40.765625 23.09375 41.21875 
Q 26.265625 42.1875 29.5 42.1875 
Q 36.921875 42.1875 41.875 36.78125 
Q 46.828125 31.390625 46.828125 22.078125 
Q 46.828125 15.53125 44.140625 10.0625 
Q 41.453125 4.59375 36.515625 1.609375 
Q 31.59375 -1.375 25.984375 -1.375 
Q 19.875 -1.375 14.6875 1.96875 
Q 9.515625 5.328125 6.609375 11.765625 
Q 3.71875 18.21875 3.71875 25.78125 
Q 3.71875 36.921875 9.0625 46.515625 
Q 14.40625 56.109375 24.234375 61.796875 
Q 34.078125 67.484375 46.96875 67.578125 
z
M 18.890625 35.359375 
Q 18.5 28.609375 18.5 25.484375 
Q 18.5 18.75 19.796875 12.453125 
Q 21.09375 6.15625 23.34375 3.609375 
Q 24.953125 1.8125 27.15625 1.8125 
Q 29.390625 1.8125 31.140625 4.421875 
Q 32.90625 7.03125 32.90625 15.046875 
Q 32.90625 28.515625 29.640625 33.640625 
Q 27.546875 36.96875 23.96875 36.96875 
Q 22.015625 36.96875 18.890625 35.359375 
z
" id="TimesNewRomanPS-BoldMT-54"/>
      </defs>
      <g transform="translate(303.863891 311.305938)scale(0.1 -0.1)">
       <use xlink:href="#TimesNewRomanPS-BoldMT-48"/>
       <use x="50" xlink:href="#TimesNewRomanPS-BoldMT-46"/>
       <use x="75" xlink:href="#TimesNewRomanPS-BoldMT-54"/>
      </g>
     </g>
    </g>
    <g id="xtick_5">
     <g id="line2d_5">
      <g>
       <use style="stroke:#000000;stroke-width:0.8;" x="393.122155" xlink:href="#me47c9e2a09" y="297.684063"/>
      </g>
     </g>
     <g id="text_5">
      <!-- 0.8 -->
      <defs>
       <path d="M 34.078125 37.40625 
Q 41.0625 32.28125 43.765625 27.859375 
Q 46.484375 23.4375 46.484375 17.71875 
Q 46.484375 9.71875 40.453125 4.171875 
Q 34.421875 -1.375 24.078125 -1.375 
Q 14.265625 -1.375 8.890625 3.453125 
Q 3.515625 8.296875 3.515625 15.28125 
Q 3.515625 20.609375 6.609375 24.609375 
Q 9.71875 28.609375 16.9375 31.9375 
Q 9.078125 37.9375 6.859375 41.75 
Q 4.640625 45.5625 4.640625 50.59375 
Q 4.640625 57.234375 10.28125 62.28125 
Q 15.921875 67.328125 25.734375 67.328125 
Q 35.203125 67.328125 40.296875 62.859375 
Q 45.40625 58.40625 45.40625 52.15625 
Q 45.40625 47.46875 42.640625 43.875 
Q 39.890625 40.28125 34.078125 37.40625 
z
M 30.375 39.890625 
Q 32.171875 42.328125 33.046875 45.359375 
Q 33.9375 48.390625 33.9375 52 
Q 33.9375 58.34375 31.203125 61.71875 
Q 29.15625 64.3125 25.53125 64.3125 
Q 22.265625 64.3125 19.96875 61.9375 
Q 17.671875 59.578125 17.671875 56.0625 
Q 17.671875 52.484375 20.234375 48.65625 
Q 22.796875 44.828125 30.375 39.890625 
z
M 20.609375 29.59375 
Q 19.09375 28.21875 18.453125 27.09375 
Q 17.484375 25.390625 16.703125 22.109375 
Q 15.921875 18.84375 15.921875 15.28125 
Q 15.921875 10.6875 17.09375 7.59375 
Q 18.265625 4.5 20.4375 3.125 
Q 22.609375 1.765625 24.90625 1.765625 
Q 28.46875 1.765625 30.90625 4.375 
Q 33.34375 6.984375 33.34375 11.53125 
Q 33.34375 21 20.609375 29.59375 
z
" id="TimesNewRomanPS-BoldMT-56"/>
      </defs>
      <g transform="translate(386.872155 311.305938)scale(0.1 -0.1)">
       <use xlink:href="#TimesNewRomanPS-BoldMT-48"/>
       <use x="50" xlink:href="#TimesNewRomanPS-BoldMT-46"/>
       <use x="75" xlink:href="#TimesNewRomanPS-BoldMT-56"/>
      </g>
     </g>
    </g>
    <g id="xtick_6">
     <g id="line2d_6">
      <g>
       <use style="stroke:#000000;stroke-width:0.8;" x="476.13042" xlink:href="#me47c9e2a09" y="297.684063"/>
      </g>
     </g>
     <g id="text_6">
      <!-- 1.0 -->
      <defs>
       <path d="M 32.5625 67.578125 
L 32.5625 13.421875 
Q 32.5625 7.328125 33.09375 5.640625 
Q 33.640625 3.953125 35.34375 2.875 
Q 37.0625 1.8125 40.828125 1.8125 
L 42.328125 1.8125 
L 42.328125 0 
L 7.46875 0 
L 7.46875 1.8125 
L 9.234375 1.8125 
Q 13.484375 1.8125 15.28125 2.78125 
Q 17.09375 3.765625 17.71875 5.46875 
Q 18.359375 7.171875 18.359375 13.421875 
L 18.359375 47.75 
Q 18.359375 52.34375 17.921875 53.484375 
Q 17.484375 54.640625 16.28125 55.4375 
Q 15.09375 56.25 13.53125 56.25 
Q 11.03125 56.25 7.46875 54.6875 
L 6.59375 56.453125 
L 30.953125 67.578125 
z
" id="TimesNewRomanPS-BoldMT-49"/>
      </defs>
      <g transform="translate(469.88042 311.305938)scale(0.1 -0.1)">
       <use xlink:href="#TimesNewRomanPS-BoldMT-49"/>
       <use x="50" xlink:href="#TimesNewRomanPS-BoldMT-46"/>
       <use x="75" xlink:href="#TimesNewRomanPS-BoldMT-48"/>
      </g>
     </g>
    </g>
    <g id="text_7">
     <!-- False Positive Rate -->
     <defs>
      <path d="M 27.484375 62.40625 
L 27.484375 35.203125 
L 29.390625 35.203125 
Q 33.796875 35.203125 36.578125 36.515625 
Q 39.359375 37.84375 41.28125 40.96875 
Q 43.21875 44.09375 43.796875 49.421875 
L 45.515625 49.421875 
L 45.515625 16.15625 
L 43.796875 16.15625 
Q 42.875 25.59375 38.75 28.59375 
Q 34.625 31.59375 29.390625 31.59375 
L 27.484375 31.59375 
L 27.484375 11.328125 
Q 27.484375 6.25 28.046875 4.984375 
Q 28.609375 3.71875 30.25 2.765625 
Q 31.890625 1.8125 34.671875 1.8125 
L 36.859375 1.8125 
L 36.859375 0 
L 2.25 0 
L 2.25 1.8125 
L 4.4375 1.8125 
Q 7.328125 1.8125 9.078125 2.828125 
Q 10.359375 3.515625 11.03125 5.171875 
Q 11.578125 6.34375 11.578125 11.328125 
L 11.578125 54.890625 
Q 11.578125 59.96875 11.03125 61.234375 
Q 10.5 62.5 8.859375 63.453125 
Q 7.234375 64.40625 4.4375 64.40625 
L 2.25 64.40625 
L 2.25 66.21875 
L 58.109375 66.21875 
L 58.109375 47.21875 
L 56.109375 47.21875 
Q 55.421875 53.90625 52.609375 57.125 
Q 49.8125 60.359375 44.484375 61.671875 
Q 41.546875 62.40625 33.640625 62.40625 
z
" id="TimesNewRomanPS-BoldMT-70"/>
      <path d="M 28.5625 6.734375 
Q 20.21875 -0.640625 13.578125 -0.640625 
Q 9.671875 -0.640625 7.078125 1.921875 
Q 4.5 4.5 4.5 8.34375 
Q 4.5 13.578125 8.984375 17.75 
Q 13.484375 21.921875 28.5625 28.859375 
L 28.5625 33.453125 
Q 28.5625 38.625 28 39.96875 
Q 27.4375 41.3125 25.875 42.3125 
Q 24.3125 43.3125 22.359375 43.3125 
Q 19.1875 43.3125 17.140625 41.890625 
Q 15.875 41.015625 15.875 39.84375 
Q 15.875 38.8125 17.234375 37.3125 
Q 19.09375 35.203125 19.09375 33.25 
Q 19.09375 30.859375 17.3125 29.171875 
Q 15.53125 27.484375 12.640625 27.484375 
Q 9.578125 27.484375 7.5 29.34375 
Q 5.421875 31.203125 5.421875 33.6875 
Q 5.421875 37.203125 8.203125 40.40625 
Q 10.984375 43.609375 15.96875 45.3125 
Q 20.953125 47.015625 26.3125 47.015625 
Q 32.8125 47.015625 36.59375 44.25 
Q 40.375 41.5 41.5 38.28125 
Q 42.1875 36.234375 42.1875 28.859375 
L 42.1875 11.140625 
Q 42.1875 8.015625 42.421875 7.203125 
Q 42.671875 6.390625 43.15625 6 
Q 43.65625 5.609375 44.28125 5.609375 
Q 45.5625 5.609375 46.875 7.421875 
L 48.34375 6.25 
Q 45.90625 2.640625 43.28125 1 
Q 40.671875 -0.640625 37.359375 -0.640625 
Q 33.453125 -0.640625 31.25 1.1875 
Q 29.046875 3.03125 28.5625 6.734375 
z
M 28.5625 10.296875 
L 28.5625 25.59375 
Q 22.65625 22.125 19.78125 18.171875 
Q 17.875 15.53125 17.875 12.84375 
Q 17.875 10.59375 19.484375 8.890625 
Q 20.703125 7.5625 22.90625 7.5625 
Q 25.34375 7.5625 28.5625 10.296875 
z
" id="TimesNewRomanPS-BoldMT-97"/>
      <path d="M 21.234375 66.21875 
L 21.234375 9.46875 
Q 21.234375 4.640625 22.359375 3.296875 
Q 23.484375 1.953125 26.765625 1.765625 
L 26.765625 0 
L 2.09375 0 
L 2.09375 1.765625 
Q 5.125 1.859375 6.59375 3.515625 
Q 7.5625 4.640625 7.5625 9.46875 
L 7.5625 56.734375 
Q 7.5625 61.53125 6.4375 62.859375 
Q 5.328125 64.203125 2.09375 64.40625 
L 2.09375 66.21875 
z
" id="TimesNewRomanPS-BoldMT-108"/>
      <path d="M 32.234375 46.921875 
L 32.953125 31.34375 
L 31.296875 31.34375 
Q 28.328125 38.28125 25.125 40.8125 
Q 21.921875 43.359375 18.75 43.359375 
Q 16.75 43.359375 15.328125 42.015625 
Q 13.921875 40.671875 13.921875 38.921875 
Q 13.921875 37.59375 14.890625 36.375 
Q 16.453125 34.375 23.625 29.515625 
Q 30.8125 24.65625 33.078125 21.265625 
Q 35.359375 17.875 35.359375 13.671875 
Q 35.359375 9.859375 33.453125 6.203125 
Q 31.546875 2.546875 28.078125 0.578125 
Q 24.609375 -1.375 20.40625 -1.375 
Q 17.140625 -1.375 11.671875 0.6875 
Q 10.203125 1.21875 9.671875 1.21875 
Q 8.0625 1.21875 6.984375 -1.21875 
L 5.375 -1.21875 
L 4.59375 15.1875 
L 6.25 15.1875 
Q 8.453125 8.734375 12.28125 5.515625 
Q 16.109375 2.296875 19.53125 2.296875 
Q 21.875 2.296875 23.359375 3.734375 
Q 24.859375 5.171875 24.859375 7.234375 
Q 24.859375 9.578125 23.390625 11.28125 
Q 21.921875 12.984375 16.84375 16.453125 
Q 9.375 21.625 7.171875 24.359375 
Q 3.953125 28.375 3.953125 33.203125 
Q 3.953125 38.484375 7.59375 42.75 
Q 11.234375 47.015625 18.109375 47.015625 
Q 21.828125 47.015625 25.296875 45.21875 
Q 26.609375 44.484375 27.4375 44.484375 
Q 28.328125 44.484375 28.859375 44.84375 
Q 29.390625 45.21875 30.5625 46.921875 
z
" id="TimesNewRomanPS-BoldMT-115"/>
      <path d="M 42.046875 24.46875 
L 17 24.46875 
Q 17.4375 15.375 21.828125 10.109375 
Q 25.203125 6.0625 29.9375 6.0625 
Q 32.859375 6.0625 35.25 7.6875 
Q 37.640625 9.328125 40.375 13.578125 
L 42.046875 12.5 
Q 38.328125 4.9375 33.828125 1.78125 
Q 29.34375 -1.375 23.4375 -1.375 
Q 13.28125 -1.375 8.0625 6.453125 
Q 3.859375 12.75 3.859375 22.078125 
Q 3.859375 33.5 10.03125 40.25 
Q 16.21875 47.015625 24.515625 47.015625 
Q 31.453125 47.015625 36.546875 41.328125 
Q 41.65625 35.640625 42.046875 24.46875 
z
M 30.03125 27.734375 
Q 30.03125 35.59375 29.171875 38.515625 
Q 28.328125 41.453125 26.515625 42.96875 
Q 25.484375 43.84375 23.78125 43.84375 
Q 21.234375 43.84375 19.625 41.359375 
Q 16.75 37.015625 16.75 29.4375 
L 16.75 27.734375 
z
" id="TimesNewRomanPS-BoldMT-101"/>
      <path id="TimesNewRomanPS-BoldMT-32"/>
      <path d="M 27 29.984375 
L 27 11.625 
Q 27 6.25 27.65625 4.859375 
Q 28.328125 3.46875 30 2.640625 
Q 31.6875 1.8125 36.1875 1.8125 
L 36.1875 0 
L 2.546875 0 
L 2.546875 1.8125 
Q 7.125 1.8125 8.765625 2.65625 
Q 10.40625 3.515625 11.0625 4.875 
Q 11.71875 6.25 11.71875 11.625 
L 11.71875 54.59375 
Q 11.71875 59.96875 11.0625 61.359375 
Q 10.40625 62.75 8.734375 63.578125 
Q 7.078125 64.40625 2.546875 64.40625 
L 2.546875 66.21875 
L 31.390625 66.21875 
Q 45.65625 66.21875 51.859375 61.140625 
Q 58.0625 56.0625 58.0625 48.4375 
Q 58.0625 42 54.046875 37.40625 
Q 50.046875 32.8125 43.015625 31.15625 
Q 38.28125 29.984375 27 29.984375 
z
M 27 62.40625 
L 27 33.796875 
Q 28.609375 33.6875 29.4375 33.6875 
Q 35.40625 33.6875 38.625 37.21875 
Q 41.84375 40.765625 41.84375 48.1875 
Q 41.84375 55.5625 38.625 58.984375 
Q 35.40625 62.40625 29 62.40625 
z
" id="TimesNewRomanPS-BoldMT-80"/>
      <path d="M 24.90625 47.015625 
Q 30.859375 47.015625 35.984375 43.9375 
Q 41.109375 40.875 43.765625 35.203125 
Q 46.4375 29.546875 46.4375 22.796875 
Q 46.4375 13.09375 41.5 6.546875 
Q 35.546875 -1.375 25.046875 -1.375 
Q 14.75 -1.375 9.171875 5.859375 
Q 3.609375 13.09375 3.609375 22.609375 
Q 3.609375 32.421875 9.296875 39.71875 
Q 14.984375 47.015625 24.90625 47.015625 
z
M 25.09375 43.5625 
Q 22.609375 43.5625 20.828125 41.671875 
Q 19.046875 39.796875 18.484375 34.25 
Q 17.921875 28.71875 17.921875 18.84375 
Q 17.921875 13.625 18.609375 9.078125 
Q 19.140625 5.609375 20.890625 3.796875 
Q 22.65625 2 24.90625 2 
Q 27.09375 2 28.5625 3.21875 
Q 30.46875 4.890625 31.109375 7.859375 
Q 32.078125 12.5 32.078125 26.609375 
Q 32.078125 34.90625 31.140625 38 
Q 30.21875 41.109375 28.421875 42.53125 
Q 27.15625 43.5625 25.09375 43.5625 
z
" id="TimesNewRomanPS-BoldMT-111"/>
      <path d="M 14.359375 67.78125 
Q 17.53125 67.78125 19.71875 65.546875 
Q 21.921875 63.328125 21.921875 60.203125 
Q 21.921875 57.078125 19.703125 54.875 
Q 17.484375 52.6875 14.359375 52.6875 
Q 11.234375 52.6875 9.03125 54.875 
Q 6.84375 57.078125 6.84375 60.203125 
Q 6.84375 63.328125 9.03125 65.546875 
Q 11.234375 67.78125 14.359375 67.78125 
z
M 21.1875 45.65625 
L 21.1875 9.46875 
Q 21.1875 4.640625 22.3125 3.296875 
Q 23.4375 1.953125 26.703125 1.765625 
L 26.703125 0 
L 2.046875 0 
L 2.046875 1.765625 
Q 5.078125 1.859375 6.546875 3.515625 
Q 7.515625 4.640625 7.515625 9.46875 
L 7.515625 36.140625 
Q 7.515625 40.96875 6.390625 42.3125 
Q 5.28125 43.65625 2.046875 43.84375 
L 2.046875 45.65625 
z
" id="TimesNewRomanPS-BoldMT-105"/>
      <path d="M 21.484375 62.359375 
L 21.484375 45.65625 
L 32.328125 45.65625 
L 32.328125 40.828125 
L 21.484375 40.828125 
L 21.484375 12.640625 
Q 21.484375 8.6875 21.84375 7.53125 
Q 22.21875 6.390625 23.140625 5.6875 
Q 24.078125 4.984375 24.859375 4.984375 
Q 28.03125 4.984375 30.859375 9.8125 
L 32.328125 8.734375 
Q 28.375 -0.640625 19.484375 -0.640625 
Q 15.140625 -0.640625 12.125 1.78125 
Q 9.125 4.203125 8.296875 7.171875 
Q 7.8125 8.84375 7.8125 16.15625 
L 7.8125 40.828125 
L 1.859375 40.828125 
L 1.859375 42.53125 
Q 8.015625 46.875 12.328125 51.65625 
Q 16.65625 56.453125 19.875 62.359375 
z
" id="TimesNewRomanPS-BoldMT-116"/>
      <path d="M 23.96875 -1.375 
L 8.59375 34.03125 
Q 5.8125 40.4375 4.25 42.140625 
Q 3.125 43.40625 0.921875 43.84375 
L 0.921875 45.65625 
L 25.203125 45.65625 
L 25.203125 43.84375 
Q 22.90625 43.84375 22.078125 43.015625 
Q 20.90625 41.9375 20.90625 40.484375 
Q 20.90625 38.671875 23.046875 33.6875 
L 30.5625 16.546875 
L 36.578125 31.34375 
Q 39.15625 37.703125 39.15625 40.328125 
Q 39.15625 41.84375 38.0625 42.796875 
Q 36.96875 43.75 34.1875 43.84375 
L 34.1875 45.65625 
L 49.125 45.65625 
L 49.125 43.84375 
Q 46.96875 43.5625 45.59375 42.234375 
Q 44.234375 40.921875 41.5 34.46875 
L 26.265625 -1.375 
z
" id="TimesNewRomanPS-BoldMT-118"/>
      <path d="M 26.5625 30.171875 
L 26.5625 11.625 
Q 26.5625 6.25 27.21875 4.859375 
Q 27.875 3.46875 29.53125 2.640625 
Q 31.203125 1.8125 35.75 1.8125 
L 35.75 0 
L 1.859375 0 
L 1.859375 1.8125 
Q 6.453125 1.8125 8.078125 2.65625 
Q 9.71875 3.515625 10.375 4.875 
Q 11.03125 6.25 11.03125 11.625 
L 11.03125 54.59375 
Q 11.03125 59.96875 10.375 61.359375 
Q 9.71875 62.75 8.046875 63.578125 
Q 6.390625 64.40625 1.859375 64.40625 
L 1.859375 66.21875 
L 32.625 66.21875 
Q 44.625 66.21875 50.1875 64.546875 
Q 55.765625 62.890625 59.28125 58.421875 
Q 62.796875 53.953125 62.796875 47.953125 
Q 62.796875 40.625 57.515625 35.84375 
Q 54.15625 32.8125 48.09375 31.296875 
L 64.015625 8.890625 
Q 67.140625 4.546875 68.453125 3.46875 
Q 70.453125 1.953125 73.09375 1.8125 
L 73.09375 0 
L 52.25 0 
L 30.90625 30.171875 
z
M 26.5625 62.640625 
L 26.5625 33.640625 
L 29.34375 33.640625 
Q 36.140625 33.640625 39.5 34.890625 
Q 42.875 36.140625 44.796875 39.375 
Q 46.734375 42.625 46.734375 47.859375 
Q 46.734375 55.421875 43.1875 59.03125 
Q 39.65625 62.640625 31.78125 62.640625 
z
" id="TimesNewRomanPS-BoldMT-82"/>
     </defs>
     <g transform="translate(224.316712 324.729063)scale(0.11 -0.11)">
      <use xlink:href="#TimesNewRomanPS-BoldMT-70"/>
      <use x="61.083984" xlink:href="#TimesNewRomanPS-BoldMT-97"/>
      <use x="111.083984" xlink:href="#TimesNewRomanPS-BoldMT-108"/>
      <use x="138.867188" xlink:href="#TimesNewRomanPS-BoldMT-115"/>
      <use x="177.783203" xlink:href="#TimesNewRomanPS-BoldMT-101"/>
      <use x="222.167969" xlink:href="#TimesNewRomanPS-BoldMT-32"/>
      <use x="247.167969" xlink:href="#TimesNewRomanPS-BoldMT-80"/>
      <use x="308.251953" xlink:href="#TimesNewRomanPS-BoldMT-111"/>
      <use x="358.251953" xlink:href="#TimesNewRomanPS-BoldMT-115"/>
      <use x="397.167969" xlink:href="#TimesNewRomanPS-BoldMT-105"/>
      <use x="424.951172" xlink:href="#TimesNewRomanPS-BoldMT-116"/>
      <use x="458.251953" xlink:href="#TimesNewRomanPS-BoldMT-105"/>
      <use x="486.035156" xlink:href="#TimesNewRomanPS-BoldMT-118"/>
      <use x="536.035156" xlink:href="#TimesNewRomanPS-BoldMT-101"/>
      <use x="580.419922" xlink:href="#TimesNewRomanPS-BoldMT-32"/>
      <use x="605.419922" xlink:href="#TimesNewRomanPS-BoldMT-82"/>
      <use x="677.636719" xlink:href="#TimesNewRomanPS-BoldMT-97"/>
      <use x="727.636719" xlink:href="#TimesNewRomanPS-BoldMT-116"/>
      <use x="760.9375" xlink:href="#TimesNewRomanPS-BoldMT-101"/>
     </g>
    </g>
   </g>
   <g id="matplotlib.axis_2">
    <g id="ytick_1">
     <g id="line2d_7">
      <defs>
       <path d="M 0 0 
L -3.5 0 
" id="m4e64fc8518" style="stroke:#000000;stroke-width:0.8;"/>
      </defs>
      <g>
       <use style="stroke:#000000;stroke-width:0.8;" x="40.337031" xlink:href="#m4e64fc8518" y="285.084063"/>
      </g>
     </g>
     <g id="text_8">
      <!-- 0.0 -->
      <g transform="translate(20.837031 288.395)scale(0.1 -0.1)">
       <use xlink:href="#TimesNewRomanPS-BoldMT-48"/>
       <use x="50" xlink:href="#TimesNewRomanPS-BoldMT-46"/>
       <use x="75" xlink:href="#TimesNewRomanPS-BoldMT-48"/>
      </g>
     </g>
    </g>
    <g id="ytick_2">
     <g id="line2d_8">
      <g>
       <use style="stroke:#000000;stroke-width:0.8;" x="40.337031" xlink:href="#m4e64fc8518" y="234.684063"/>
      </g>
     </g>
     <g id="text_9">
      <!-- 0.2 -->
      <g transform="translate(20.837031 237.995)scale(0.1 -0.1)">
       <use xlink:href="#TimesNewRomanPS-BoldMT-48"/>
       <use x="50" xlink:href="#TimesNewRomanPS-BoldMT-46"/>
       <use x="75" xlink:href="#TimesNewRomanPS-BoldMT-50"/>
      </g>
     </g>
    </g>
    <g id="ytick_3">
     <g id="line2d_9">
      <g>
       <use style="stroke:#000000;stroke-width:0.8;" x="40.337031" xlink:href="#m4e64fc8518" y="184.284063"/>
      </g>
     </g>
     <g id="text_10">
      <!-- 0.4 -->
      <g transform="translate(20.837031 187.595)scale(0.1 -0.1)">
       <use xlink:href="#TimesNewRomanPS-BoldMT-48"/>
       <use x="50" xlink:href="#TimesNewRomanPS-BoldMT-46"/>
       <use x="75" xlink:href="#TimesNewRomanPS-BoldMT-52"/>
      </g>
     </g>
    </g>
    <g id="ytick_4">
     <g id="line2d_10">
      <g>
       <use style="stroke:#000000;stroke-width:0.8;" x="40.337031" xlink:href="#m4e64fc8518" y="133.884063"/>
      </g>
     </g>
     <g id="text_11">
      <!-- 0.6 -->
      <g transform="translate(20.837031 137.195)scale(0.1 -0.1)">
       <use xlink:href="#TimesNewRomanPS-BoldMT-48"/>
       <use x="50" xlink:href="#TimesNewRomanPS-BoldMT-46"/>
       <use x="75" xlink:href="#TimesNewRomanPS-BoldMT-54"/>
      </g>
     </g>
    </g>
    <g id="ytick_5">
     <g id="line2d_11">
      <g>
       <use style="stroke:#000000;stroke-width:0.8;" x="40.337031" xlink:href="#m4e64fc8518" y="83.484063"/>
      </g>
     </g>
     <g id="text_12">
      <!-- 0.8 -->
      <g transform="translate(20.837031 86.795)scale(0.1 -0.1)">
       <use xlink:href="#TimesNewRomanPS-BoldMT-48"/>
       <use x="50" xlink:href="#TimesNewRomanPS-BoldMT-46"/>
       <use x="75" xlink:href="#TimesNewRomanPS-BoldMT-56"/>
      </g>
     </g>
    </g>
    <g id="ytick_6">
     <g id="line2d_12">
      <g>
       <use style="stroke:#000000;stroke-width:0.8;" x="40.337031" xlink:href="#m4e64fc8518" y="33.084063"/>
      </g>
     </g>
     <g id="text_13">
      <!-- 1.0 -->
      <g transform="translate(20.837031 36.395)scale(0.1 -0.1)">
       <use xlink:href="#TimesNewRomanPS-BoldMT-49"/>
       <use x="50" xlink:href="#TimesNewRomanPS-BoldMT-46"/>
       <use x="75" xlink:href="#TimesNewRomanPS-BoldMT-48"/>
      </g>
     </g>
    </g>
    <g id="text_14">
     <!-- True Positive Rate -->
     <defs>
      <path d="M 63.09375 66.21875 
L 63.09375 48.296875 
L 61.328125 48.296875 
Q 59.765625 54.5 57.859375 57.203125 
Q 55.953125 59.90625 52.640625 61.53125 
Q 50.78125 62.40625 46.140625 62.40625 
L 41.21875 62.40625 
L 41.21875 11.328125 
Q 41.21875 6.25 41.765625 4.984375 
Q 42.328125 3.71875 43.96875 2.765625 
Q 45.609375 1.8125 48.4375 1.8125 
L 50.640625 1.8125 
L 50.640625 0 
L 15.96875 0 
L 15.96875 1.8125 
L 18.171875 1.8125 
Q 21.046875 1.8125 22.796875 2.828125 
Q 24.078125 3.515625 24.8125 5.171875 
Q 25.34375 6.34375 25.34375 11.328125 
L 25.34375 62.40625 
L 20.5625 62.40625 
Q 13.875 62.40625 10.84375 59.578125 
Q 6.59375 55.609375 5.46875 48.296875 
L 3.609375 48.296875 
L 3.609375 66.21875 
z
" id="TimesNewRomanPS-BoldMT-84"/>
      <path d="M 22.3125 45.65625 
L 22.3125 35.296875 
Q 26.859375 42.390625 30.265625 44.703125 
Q 33.6875 47.015625 36.859375 47.015625 
Q 39.59375 47.015625 41.234375 45.328125 
Q 42.875 43.65625 42.875 40.578125 
Q 42.875 37.3125 41.28125 35.5 
Q 39.703125 33.6875 37.453125 33.6875 
Q 34.859375 33.6875 32.953125 35.34375 
Q 31.0625 37.015625 30.71875 37.203125 
Q 30.21875 37.5 29.59375 37.5 
Q 28.171875 37.5 26.90625 36.421875 
Q 24.90625 34.765625 23.875 31.6875 
Q 22.3125 26.953125 22.3125 21.234375 
L 22.3125 10.75 
L 22.359375 8.015625 
Q 22.359375 5.21875 22.703125 4.4375 
Q 23.296875 3.125 24.4375 2.515625 
Q 25.59375 1.90625 28.328125 1.765625 
L 28.328125 0 
L 3.65625 0 
L 3.65625 1.765625 
Q 6.640625 2 7.6875 3.390625 
Q 8.734375 4.78125 8.734375 10.75 
L 8.734375 35.984375 
Q 8.734375 39.890625 8.34375 40.96875 
Q 7.859375 42.328125 6.921875 42.96875 
Q 6 43.609375 3.65625 43.84375 
L 3.65625 45.65625 
z
" id="TimesNewRomanPS-BoldMT-114"/>
      <path d="M 47.46875 45.65625 
L 47.46875 9.90625 
Q 47.46875 4.6875 48.4375 3.390625 
Q 49.421875 2.09375 52.390625 1.765625 
L 52.390625 0 
L 33.796875 0 
L 33.796875 6.109375 
Q 30.515625 2.203125 27.234375 0.40625 
Q 23.96875 -1.375 19.921875 -1.375 
Q 16.0625 -1.375 13.0625 1 
Q 10.0625 3.375 9.03125 6.546875 
Q 8.015625 9.71875 8.015625 17.625 
L 8.015625 35.75 
Q 8.015625 40.921875 7.0625 42.1875 
Q 6.109375 43.453125 3.078125 43.84375 
L 3.078125 45.65625 
L 21.6875 45.65625 
L 21.6875 14.453125 
Q 21.6875 9.578125 22.140625 8.15625 
Q 22.609375 6.734375 23.609375 6 
Q 24.609375 5.28125 25.921875 5.28125 
Q 27.6875 5.28125 29.109375 6.203125 
Q 31.0625 7.46875 33.796875 11.328125 
L 33.796875 35.75 
Q 33.796875 40.921875 32.84375 42.1875 
Q 31.890625 43.453125 28.859375 43.84375 
L 28.859375 45.65625 
z
" id="TimesNewRomanPS-BoldMT-117"/>
     </defs>
     <g transform="translate(14.484063 202.362188)rotate(-90)scale(0.11 -0.11)">
      <use xlink:href="#TimesNewRomanPS-BoldMT-84"/>
      <use x="59.324219" xlink:href="#TimesNewRomanPS-BoldMT-114"/>
      <use x="103.708984" xlink:href="#TimesNewRomanPS-BoldMT-117"/>
      <use x="159.324219" xlink:href="#TimesNewRomanPS-BoldMT-101"/>
      <use x="203.708984" xlink:href="#TimesNewRomanPS-BoldMT-32"/>
      <use x="228.708984" xlink:href="#TimesNewRomanPS-BoldMT-80"/>
      <use x="289.792969" xlink:href="#TimesNewRomanPS-BoldMT-111"/>
      <use x="339.792969" xlink:href="#TimesNewRomanPS-BoldMT-115"/>
      <use x="378.708984" xlink:href="#TimesNewRomanPS-BoldMT-105"/>
      <use x="406.492188" xlink:href="#TimesNewRomanPS-BoldMT-116"/>
      <use x="439.792969" xlink:href="#TimesNewRomanPS-BoldMT-105"/>
      <use x="467.576172" xlink:href="#TimesNewRomanPS-BoldMT-118"/>
      <use x="517.576172" xlink:href="#TimesNewRomanPS-BoldMT-101"/>
      <use x="561.960938" xlink:href="#TimesNewRomanPS-BoldMT-32"/>
      <use x="586.960938" xlink:href="#TimesNewRomanPS-BoldMT-82"/>
      <use x="659.177734" xlink:href="#TimesNewRomanPS-BoldMT-97"/>
      <use x="709.177734" xlink:href="#TimesNewRomanPS-BoldMT-116"/>
      <use x="742.478516" xlink:href="#TimesNewRomanPS-BoldMT-101"/>
     </g>
    </g>
   </g>
   <g id="line2d_13">
    <path clip-path="url(#pb04126cc39)" d="M 61.089097 285.084063 
L 61.168821 52.397931 
L 61.208683 52.397931 
L 61.288406 49.348373 
L 61.328268 49.348373 
L 61.407992 47.53316 
L 61.487716 47.484754 
L 61.567439 46.782872 
L 61.647163 46.758669 
L 61.726887 46.1778 
L 61.766748 46.1778 
L 61.846472 45.838961 
L 61.966058 45.814758 
L 62.045781 45.282295 
L 62.165367 45.282295 
L 62.205228 45.016064 
L 62.364676 44.967658 
L 62.404538 44.72563 
L 62.484261 44.72563 
L 62.563985 44.532007 
L 62.723432 44.435196 
L 62.803156 44.144762 
L 62.882879 44.120559 
L 62.962603 43.854328 
L 63.002465 43.854328 
L 63.002465 43.733313 
L 63.161912 43.733313 
L 63.201774 43.515488 
L 63.281498 43.515488 
L 63.361221 43.200851 
L 63.520669 43.128242 
L 63.560531 42.983025 
L 63.75984 42.910417 
L 63.839563 42.740997 
L 63.999011 42.692591 
L 64.078734 42.59578 
L 64.238182 42.523171 
L 64.317905 42.377954 
L 64.437491 42.329548 
L 64.517214 42.208534 
L 64.557076 42.208534 
L 64.557076 42.08752 
L 65.07528 41.990709 
L 65.155004 41.869694 
L 65.194865 41.869694 
L 65.194865 41.724477 
L 65.434036 41.676072 
L 65.51376 41.288826 
L 65.593484 41.288826 
L 65.633345 41.119406 
L 65.912378 41.022595 
L 65.992102 40.949986 
L 66.271135 40.877378 
L 66.350858 40.635349 
L 66.590029 40.635349 
L 66.669753 40.417524 
L 66.749477 40.320713 
L 66.8292 40.175495 
L 67.108233 40.078684 
L 67.148095 39.909264 
L 67.466989 39.812453 
L 67.466989 39.764047 
L 67.626437 39.715641 
L 67.626437 39.643033 
L 67.825746 39.570424 
L 67.825746 39.44941 
L 68.264226 39.352599 
L 68.34395 39.255787 
L 68.622982 39.158976 
L 68.662844 39.086368 
L 69.101324 39.037962 
L 69.181048 38.892745 
L 69.340495 38.795933 
L 69.420219 38.747528 
L 69.539804 38.674919 
L 69.539804 38.626514 
L 69.898561 38.529702 
L 69.898561 38.505499 
L 71.054554 38.408688 
L 71.094415 38.287674 
L 71.692343 38.190862 
L 71.692343 38.16666 
L 72.011237 38.069848 
L 72.090961 37.948834 
L 72.29027 37.852023 
L 72.29027 37.803617 
L 73.127369 37.706805 
L 73.207092 37.634197 
L 73.645572 37.537386 
L 73.645572 37.513183 
L 74.68198 37.416371 
L 74.68198 37.392169 
L 75.399493 37.295357 
L 75.399493 37.222749 
L 76.037282 37.125937 
L 76.117005 37.077532 
L 76.87438 36.98072 
L 76.87438 36.956517 
L 77.432446 36.859706 
L 77.512169 36.8113 
L 77.910788 36.714489 
L 77.910788 36.666083 
L 79.26609 36.593475 
L 79.26609 36.545069 
L 79.824155 36.448258 
L 79.824155 36.424055 
L 81.179457 36.327243 
L 81.179457 36.303041 
L 81.777385 36.206229 
L 81.817246 36.085215 
L 82.614483 36.012606 
L 82.614483 35.939998 
L 84.248818 35.843187 
L 84.248818 35.818984 
L 84.806883 35.746375 
L 84.886607 35.673767 
L 85.643982 35.576955 
L 85.643982 35.552752 
L 87.238455 35.455941 
L 87.238455 35.431738 
L 88.912651 35.334927 
L 88.912651 35.310724 
L 90.028782 35.213913 
L 90.028782 35.18971 
L 90.826019 35.092898 
L 90.826019 35.068696 
L 93.656208 34.971884 
L 93.656208 34.947681 
L 97.722115 34.85087 
L 97.722115 34.802464 
L 100.472581 34.705653 
L 100.472581 34.68145 
L 102.306224 34.584639 
L 102.306224 34.560436 
L 104.060145 34.463625 
L 104.060145 34.439422 
L 106.651163 34.34261 
L 106.651163 34.318407 
L 108.086189 34.221596 
L 108.086189 34.197393 
L 110.836655 34.100582 
L 110.836655 34.076379 
L 117.812474 33.979568 
L 117.812474 33.955365 
L 125.904425 33.858553 
L 125.904425 33.834351 
L 135.670572 33.737539 
L 135.670572 33.713336 
L 147.748705 33.616525 
L 147.748705 33.592322 
L 171.307044 33.495511 
L 171.307044 33.471308 
L 202.797885 33.374497 
L 202.797885 33.350294 
L 239.829521 33.253482 
L 239.829521 33.22928 
L 433.916747 33.132468 
L 433.916747 33.108265 
L 476.13042 33.084063 
L 476.13042 33.084063 
" style="fill:none;stroke:#1f77b4;stroke-linecap:square;"/>
   </g>
   <g id="line2d_14">
    <path clip-path="url(#pb04126cc39)" d="M 61.089097 285.084063 
L 61.168821 55.229664 
L 61.208683 55.229664 
L 61.288406 51.913874 
L 61.328268 51.913874 
L 61.407992 49.808227 
L 61.487716 49.735618 
L 61.567439 48.719099 
L 61.607301 48.719099 
L 61.687025 47.266928 
L 61.726887 47.266928 
L 61.80661 46.008381 
L 61.886334 45.935772 
L 61.966058 45.790555 
L 62.005919 45.790555 
L 62.085643 43.926936 
L 62.125505 43.926936 
L 62.205228 43.442879 
L 62.24509 43.442879 
L 62.324814 42.59578 
L 62.364676 42.59578 
L 62.444399 41.942303 
L 62.524123 41.942303 
L 62.603847 41.555058 
L 62.643709 41.555058 
L 62.723432 41.022595 
L 62.763294 41.022595 
L 62.843018 40.780567 
L 62.922741 40.683755 
L 63.002465 40.441727 
L 63.042327 40.441727 
L 63.12205 40.151293 
L 63.480807 40.078684 
L 63.560531 39.715641 
L 63.600392 39.715641 
L 63.680116 39.522019 
L 63.879425 39.44941 
L 63.959149 39.304193 
L 64.038872 39.304193 
L 64.118596 39.134773 
L 64.158458 39.134773 
L 64.19832 38.965353 
L 64.437491 38.892745 
L 64.517214 38.626514 
L 64.796247 38.529702 
L 64.875971 38.481296 
L 65.155004 38.432891 
L 65.155004 38.336079 
L 65.673207 38.239268 
L 65.752931 37.924631 
L 66.350858 37.82782 
L 66.430582 37.682603 
L 66.669753 37.585791 
L 66.709615 37.537386 
L 66.988647 37.440574 
L 66.988647 37.343763 
L 67.586575 37.246951 
L 67.586575 37.198546 
L 68.025055 37.101734 
L 68.025055 37.077532 
L 68.383811 37.029126 
L 68.383811 36.932315 
L 68.662844 36.835503 
L 68.702706 36.787097 
L 69.300633 36.690286 
L 69.300633 36.64188 
L 69.699252 36.545069 
L 69.699252 36.496663 
L 70.376903 36.399852 
L 70.416764 36.351446 
L 71.014692 36.254635 
L 71.014692 36.230432 
L 71.931514 36.133621 
L 71.931514 36.109418 
L 72.210547 36.085215 
L 72.29027 35.964201 
L 72.928059 35.867389 
L 72.928059 35.843187 
L 73.964467 35.746375 
L 73.964467 35.722172 
L 76.396038 35.625361 
L 76.396038 35.601158 
L 77.153413 35.504347 
L 77.153413 35.480144 
L 78.428991 35.383333 
L 78.468853 35.334927 
L 79.026919 35.262318 
L 79.026919 35.213913 
L 80.182912 35.117101 
L 80.182912 35.068696 
L 81.857108 34.971884 
L 81.89697 34.923479 
L 83.21241 34.85087 
L 83.21241 34.802464 
L 85.484534 34.705653 
L 85.484534 34.68145 
L 88.235 34.584639 
L 88.235 34.560436 
L 91.423946 34.463625 
L 91.50367 34.366813 
L 93.177867 34.270002 
L 93.177867 34.245799 
L 95.091234 34.148988 
L 95.091234 34.124785 
L 99.715206 34.027973 
L 99.715206 34.003771 
L 105.256 33.906959 
L 105.256 33.882756 
L 109.003011 33.785945 
L 109.003011 33.761742 
L 125.784839 33.664931 
L 125.784839 33.640728 
L 132.56135 33.543917 
L 132.56135 33.519714 
L 189.484036 33.422902 
L 189.484036 33.398699 
L 285.830067 33.301888 
L 285.830067 33.277685 
L 391.424041 33.180874 
L 391.424041 33.156671 
L 476.13042 33.084063 
L 476.13042 33.084063 
" style="fill:none;stroke:#ff7f0e;stroke-linecap:square;"/>
   </g>
   <g id="line2d_15">
    <path clip-path="url(#pb04126cc39)" d="M 61.089097 285.084063 
L 476.13042 33.084063 
" style="fill:none;stroke:#000000;stroke-dasharray:5.55,2.4;stroke-dashoffset:0;stroke-width:1.5;"/>
   </g>
   <g id="patch_3">
    <path d="M 40.337031 297.684063 
L 40.337031 20.484063 
" style="fill:none;stroke:#000000;stroke-linecap:square;stroke-linejoin:miter;stroke-width:0.8;"/>
   </g>
   <g id="patch_4">
    <path d="M 496.882486 297.684063 
L 496.882486 20.484063 
" style="fill:none;stroke:#000000;stroke-linecap:square;stroke-linejoin:miter;stroke-width:0.8;"/>
   </g>
   <g id="patch_5">
    <path d="M 40.337031 297.684063 
L 496.882486 297.684063 
" style="fill:none;stroke:#000000;stroke-linecap:square;stroke-linejoin:miter;stroke-width:0.8;"/>
   </g>
   <g id="patch_6">
    <path d="M 40.337031 20.484063 
L 496.882486 20.484063 
" style="fill:none;stroke:#000000;stroke-linecap:square;stroke-linejoin:miter;stroke-width:0.8;"/>
   </g>
   <g id="text_15">
    <!-- ROC curve of different feature combinations on NPInter 10412 -->
    <defs>
     <path d="M 38.625 67.140625 
Q 54.4375 67.71875 64.328125 57.90625 
Q 74.21875 48.09375 74.21875 33.34375 
Q 74.21875 20.75 66.84375 11.1875 
Q 57.078125 -1.515625 39.265625 -1.515625 
Q 21.390625 -1.515625 11.625 10.59375 
Q 3.90625 20.171875 3.90625 33.296875 
Q 3.90625 48.046875 13.9375 57.875 
Q 23.96875 67.71875 38.625 67.140625 
z
M 39.203125 64.015625 
Q 30.125 64.015625 25.390625 54.734375 
Q 21.53125 47.125 21.53125 32.859375 
Q 21.53125 15.921875 27.484375 7.8125 
Q 31.640625 2.15625 39.109375 2.15625 
Q 44.140625 2.15625 47.515625 4.59375 
Q 51.8125 7.71875 54.203125 14.578125 
Q 56.59375 21.4375 56.59375 32.46875 
Q 56.59375 45.609375 54.140625 52.125 
Q 51.703125 58.640625 47.921875 61.328125 
Q 44.140625 64.015625 39.203125 64.015625 
z
" id="TimesNewRomanPS-BoldMT-79"/>
     <path d="M 66.75 67.71875 
L 66.75 44.78125 
L 64.84375 44.78125 
Q 62.703125 53.765625 56.84375 58.546875 
Q 50.984375 63.328125 43.5625 63.328125 
Q 37.359375 63.328125 32.171875 59.765625 
Q 27 56.203125 24.609375 50.4375 
Q 21.53125 43.0625 21.53125 34.03125 
Q 21.53125 25.140625 23.78125 17.84375 
Q 26.03125 10.546875 30.8125 6.8125 
Q 35.59375 3.078125 43.21875 3.078125 
Q 49.46875 3.078125 54.65625 5.8125 
Q 59.859375 8.546875 65.625 15.234375 
L 65.625 9.515625 
Q 60.0625 3.71875 54.03125 1.09375 
Q 48 -1.515625 39.9375 -1.515625 
Q 29.34375 -1.515625 21.109375 2.734375 
Q 12.890625 6.984375 8.421875 14.9375 
Q 3.953125 22.90625 3.953125 31.890625 
Q 3.953125 41.359375 8.90625 49.84375 
Q 13.875 58.34375 22.296875 63.03125 
Q 30.71875 67.71875 40.1875 67.71875 
Q 47.171875 67.71875 54.9375 64.703125 
Q 59.421875 62.9375 60.640625 62.9375 
Q 62.203125 62.9375 63.34375 64.078125 
Q 64.5 65.234375 64.84375 67.71875 
z
" id="TimesNewRomanPS-BoldMT-67"/>
     <path d="M 40.625 11.765625 
L 42.140625 10.59375 
Q 38.921875 4.546875 34.109375 1.578125 
Q 29.296875 -1.375 23.875 -1.375 
Q 14.75 -1.375 9.28125 5.515625 
Q 3.8125 12.40625 3.8125 22.078125 
Q 3.8125 31.390625 8.796875 38.484375 
Q 14.796875 47.015625 25.34375 47.015625 
Q 32.421875 47.015625 36.59375 43.453125 
Q 40.765625 39.890625 40.765625 35.5 
Q 40.765625 32.71875 39.078125 31.046875 
Q 37.40625 29.390625 34.671875 29.390625 
Q 31.78125 29.390625 29.90625 31.296875 
Q 28.03125 33.203125 27.59375 38.09375 
Q 27.296875 41.15625 26.171875 42.390625 
Q 25.046875 43.609375 23.53125 43.609375 
Q 21.1875 43.609375 19.53125 41.109375 
Q 17 37.359375 17 29.59375 
Q 17 23.140625 19.046875 17.25 
Q 21.09375 11.375 24.65625 8.5 
Q 27.34375 6.390625 31 6.390625 
Q 33.40625 6.390625 35.546875 7.515625 
Q 37.703125 8.640625 40.625 11.765625 
z
" id="TimesNewRomanPS-BoldMT-99"/>
     <path d="M 23.390625 40.875 
L 23.390625 9.1875 
Q 23.390625 4.59375 24.359375 3.421875 
Q 25.921875 1.609375 30.125 1.765625 
L 30.125 0 
L 3.21875 0 
L 3.21875 1.765625 
Q 6.296875 1.8125 7.59375 2.46875 
Q 8.890625 3.125 9.375 4.296875 
Q 9.859375 5.46875 9.859375 9.1875 
L 9.859375 40.875 
L 3.21875 40.875 
L 3.21875 45.65625 
L 9.859375 45.65625 
L 9.859375 49.03125 
L 9.8125 51.3125 
Q 9.8125 58.34375 14.96875 63.03125 
Q 20.125 67.71875 28.90625 67.71875 
Q 34.90625 67.71875 37.8125 65.46875 
Q 40.71875 63.234375 40.71875 60.5 
Q 40.71875 58.296875 38.90625 56.6875 
Q 37.109375 55.078125 34.125 55.078125 
Q 31.59375 55.078125 30.09375 56.390625 
Q 28.609375 57.71875 28.609375 59.328125 
Q 28.609375 59.765625 28.90625 61.140625 
Q 29.109375 61.96875 29.109375 62.703125 
Q 29.109375 63.71875 28.515625 64.203125 
Q 27.734375 64.9375 26.609375 64.9375 
Q 25.203125 64.9375 24.25 63.765625 
Q 23.296875 62.59375 23.296875 60.015625 
L 23.390625 51.46875 
L 23.390625 45.65625 
L 30.125 45.65625 
L 30.125 40.875 
z
" id="TimesNewRomanPS-BoldMT-102"/>
     <path d="M 47.75 66.21875 
L 47.75 13.671875 
Q 47.75 8.34375 48.046875 7.375 
Q 48.4375 5.765625 49.53125 4.984375 
Q 50.640625 4.203125 53.375 4 
L 53.375 2.390625 
L 34.078125 -1.375 
L 34.078125 5.859375 
Q 30.609375 1.65625 27.90625 0.140625 
Q 25.203125 -1.375 21.78125 -1.375 
Q 13.03125 -1.375 7.953125 6.453125 
Q 3.859375 12.796875 3.859375 22.015625 
Q 3.859375 29.390625 6.390625 35.21875 
Q 8.9375 41.0625 13.359375 44.03125 
Q 17.78125 47.015625 22.859375 47.015625 
Q 26.125 47.015625 28.65625 45.75 
Q 31.203125 44.484375 34.078125 41.3125 
L 34.078125 55.078125 
Q 34.078125 60.296875 33.640625 61.375 
Q 33.0625 62.796875 31.890625 63.46875 
Q 30.71875 64.15625 27.484375 64.15625 
L 27.484375 66.21875 
z
M 34.078125 35.25 
Q 30.46875 42.1875 25.25 42.1875 
Q 23.4375 42.1875 22.265625 41.21875 
Q 20.453125 39.703125 19.3125 35.890625 
Q 18.171875 32.078125 18.171875 24.21875 
Q 18.171875 15.578125 19.4375 11.421875 
Q 20.703125 7.28125 22.90625 5.421875 
Q 24.03125 4.5 25.984375 4.5 
Q 30.28125 4.5 34.078125 11.234375 
z
" id="TimesNewRomanPS-BoldMT-100"/>
     <path d="M 22.015625 45.65625 
L 22.015625 39.75 
Q 25.53125 43.5625 28.75 45.28125 
Q 31.984375 47.015625 35.6875 47.015625 
Q 40.140625 47.015625 43.0625 44.546875 
Q 46 42.09375 46.96875 38.421875 
Q 47.75 35.640625 47.75 27.734375 
L 47.75 9.96875 
Q 47.75 4.6875 48.703125 3.390625 
Q 49.65625 2.09375 52.6875 1.765625 
L 52.6875 0 
L 29.59375 0 
L 29.59375 1.765625 
Q 32.171875 2.09375 33.296875 3.90625 
Q 34.078125 5.125 34.078125 9.96875 
L 34.078125 30.28125 
Q 34.078125 35.890625 33.640625 37.34375 
Q 33.203125 38.8125 32.15625 39.625 
Q 31.109375 40.4375 29.828125 40.4375 
Q 25.640625 40.4375 22.015625 34.421875 
L 22.015625 9.96875 
Q 22.015625 4.828125 22.96875 3.453125 
Q 23.921875 2.09375 26.515625 1.765625 
L 26.515625 0 
L 3.421875 0 
L 3.421875 1.765625 
Q 6.296875 2.046875 7.515625 3.609375 
Q 8.34375 4.6875 8.34375 9.96875 
L 8.34375 35.75 
Q 8.34375 40.921875 7.390625 42.1875 
Q 6.453125 43.453125 3.421875 43.84375 
L 3.421875 45.65625 
z
" id="TimesNewRomanPS-BoldMT-110"/>
     <path d="M 22.3125 45.65625 
L 22.3125 39.65625 
Q 26.078125 43.75 29.265625 45.375 
Q 32.46875 47.015625 36.28125 47.015625 
Q 40.671875 47.015625 43.640625 44.96875 
Q 46.625 42.921875 48.25 38.71875 
Q 52.15625 43.109375 55.734375 45.0625 
Q 59.328125 47.015625 63.234375 47.015625 
Q 67.96875 47.015625 70.765625 44.84375 
Q 73.578125 42.671875 74.671875 39.328125 
Q 75.78125 35.984375 75.78125 28.65625 
L 75.78125 9.96875 
Q 75.78125 4.6875 76.734375 3.421875 
Q 77.6875 2.15625 80.71875 1.765625 
L 80.71875 0 
L 57.125 0 
L 57.125 1.765625 
Q 59.90625 2 61.234375 3.90625 
Q 62.109375 5.21875 62.109375 9.96875 
L 62.109375 29.59375 
Q 62.109375 35.6875 61.625 37.34375 
Q 61.140625 39.015625 60.078125 39.8125 
Q 59.03125 40.625 57.625 40.625 
Q 55.515625 40.625 53.359375 39.078125 
Q 51.21875 37.546875 49.03125 34.46875 
L 49.03125 9.96875 
Q 49.03125 5.03125 49.859375 3.765625 
Q 50.984375 1.953125 54.15625 1.765625 
L 54.15625 0 
L 30.515625 0 
L 30.515625 1.765625 
Q 32.421875 1.859375 33.515625 2.703125 
Q 34.625 3.5625 34.984375 4.75 
Q 35.359375 5.953125 35.359375 9.96875 
L 35.359375 29.59375 
Q 35.359375 35.796875 34.859375 37.359375 
Q 34.375 38.921875 33.21875 39.796875 
Q 32.078125 40.671875 30.765625 40.671875 
Q 28.8125 40.671875 27.203125 39.65625 
Q 24.90625 38.140625 22.3125 34.46875 
L 22.3125 9.96875 
Q 22.3125 5.125 23.265625 3.578125 
Q 24.21875 2.046875 27.25 1.765625 
L 27.25 0 
L 3.71875 0 
L 3.71875 1.765625 
Q 6.59375 2.046875 7.8125 3.609375 
Q 8.640625 4.6875 8.640625 9.96875 
L 8.640625 35.75 
Q 8.640625 40.921875 7.6875 42.1875 
Q 6.734375 43.453125 3.71875 43.84375 
L 3.71875 45.65625 
z
" id="TimesNewRomanPS-BoldMT-109"/>
     <path d="M 21.046875 66.21875 
L 21.046875 41.0625 
Q 26.8125 47.015625 33.640625 47.015625 
Q 38.328125 47.015625 42.46875 44.25 
Q 46.625 41.5 48.96875 36.421875 
Q 51.3125 31.34375 51.3125 24.703125 
Q 51.3125 17.234375 48.328125 11.125 
Q 45.359375 5.03125 40.375 1.828125 
Q 35.40625 -1.375 29 -1.375 
Q 25.296875 -1.375 22.40625 -0.1875 
Q 19.53125 0.984375 16.75 3.609375 
L 9.1875 -1.3125 
L 7.515625 -1.3125 
L 7.515625 56.734375 
Q 7.515625 60.6875 7.171875 61.625 
Q 6.6875 62.984375 5.640625 63.640625 
Q 4.59375 64.3125 2.09375 64.40625 
L 2.09375 66.21875 
z
M 21.046875 36.71875 
L 21.046875 16.40625 
Q 21.046875 10.203125 21.34375 8.5 
Q 21.828125 5.609375 23.671875 3.828125 
Q 25.53125 2.046875 28.421875 2.046875 
Q 30.90625 2.046875 32.6875 3.46875 
Q 34.46875 4.890625 35.65625 9.078125 
Q 36.859375 13.28125 36.859375 24.21875 
Q 36.859375 34.71875 34.234375 38.625 
Q 32.328125 41.453125 29.109375 41.453125 
Q 24.90625 41.453125 21.046875 36.71875 
z
" id="TimesNewRomanPS-BoldMT-98"/>
     <path d="M 24.90625 66.21875 
L 57.5625 25.140625 
L 57.5625 53.609375 
Q 57.5625 59.578125 55.859375 61.671875 
Q 53.515625 64.5 48 64.40625 
L 48 66.21875 
L 69.875 66.21875 
L 69.875 64.40625 
Q 65.671875 63.875 64.234375 63.015625 
Q 62.796875 62.15625 61.984375 60.21875 
Q 61.1875 58.296875 61.1875 53.609375 
L 61.1875 -1.515625 
L 59.515625 -1.515625 
L 14.75 53.609375 
L 14.75 11.53125 
Q 14.75 5.8125 17.359375 3.8125 
Q 19.96875 1.8125 23.34375 1.8125 
L 24.90625 1.8125 
L 24.90625 0 
L 1.421875 0 
L 1.421875 1.8125 
Q 6.890625 1.859375 9.03125 4.046875 
Q 11.1875 6.25 11.1875 11.53125 
L 11.1875 58.25 
L 9.765625 60.015625 
Q 7.671875 62.640625 6.046875 63.46875 
Q 4.4375 64.3125 1.421875 64.40625 
L 1.421875 66.21875 
z
" id="TimesNewRomanPS-BoldMT-78"/>
     <path d="M 36.625 1.8125 
L 36.625 0 
L 2 0 
L 2 1.8125 
L 4.203125 1.8125 
Q 7.078125 1.8125 8.84375 2.828125 
Q 10.109375 3.515625 10.796875 5.171875 
Q 11.328125 6.34375 11.328125 11.328125 
L 11.328125 54.890625 
Q 11.328125 59.96875 10.78125 61.234375 
Q 10.25 62.5 8.609375 63.453125 
Q 6.984375 64.40625 4.203125 64.40625 
L 2 64.40625 
L 2 66.21875 
L 36.625 66.21875 
L 36.625 64.40625 
L 34.421875 64.40625 
Q 31.546875 64.40625 29.78125 63.375 
Q 28.515625 62.703125 27.78125 61.03125 
Q 27.25 59.859375 27.25 54.890625 
L 27.25 11.328125 
Q 27.25 6.25 27.8125 4.984375 
Q 28.375 3.71875 30 2.765625 
Q 31.640625 1.8125 34.421875 1.8125 
z
" id="TimesNewRomanPS-BoldMT-73"/>
    </defs>
    <g transform="translate(120.42343 14.484063)scale(0.11 -0.11)">
     <use xlink:href="#TimesNewRomanPS-BoldMT-82"/>
     <use x="72.216797" xlink:href="#TimesNewRomanPS-BoldMT-79"/>
     <use x="150" xlink:href="#TimesNewRomanPS-BoldMT-67"/>
     <use x="222.216797" xlink:href="#TimesNewRomanPS-BoldMT-32"/>
     <use x="247.216797" xlink:href="#TimesNewRomanPS-BoldMT-99"/>
     <use x="291.601562" xlink:href="#TimesNewRomanPS-BoldMT-117"/>
     <use x="347.216797" xlink:href="#TimesNewRomanPS-BoldMT-114"/>
     <use x="391.601562" xlink:href="#TimesNewRomanPS-BoldMT-118"/>
     <use x="441.601562" xlink:href="#TimesNewRomanPS-BoldMT-101"/>
     <use x="485.986328" xlink:href="#TimesNewRomanPS-BoldMT-32"/>
     <use x="510.986328" xlink:href="#TimesNewRomanPS-BoldMT-111"/>
     <use x="560.986328" xlink:href="#TimesNewRomanPS-BoldMT-102"/>
     <use x="594.287109" xlink:href="#TimesNewRomanPS-BoldMT-32"/>
     <use x="619.287109" xlink:href="#TimesNewRomanPS-BoldMT-100"/>
     <use x="674.902344" xlink:href="#TimesNewRomanPS-BoldMT-105"/>
     <use x="702.685547" xlink:href="#TimesNewRomanPS-BoldMT-102"/>
     <use x="735.986328" xlink:href="#TimesNewRomanPS-BoldMT-102"/>
     <use x="769.287109" xlink:href="#TimesNewRomanPS-BoldMT-101"/>
     <use x="813.671875" xlink:href="#TimesNewRomanPS-BoldMT-114"/>
     <use x="856.306641" xlink:href="#TimesNewRomanPS-BoldMT-101"/>
     <use x="900.691406" xlink:href="#TimesNewRomanPS-BoldMT-110"/>
     <use x="956.306641" xlink:href="#TimesNewRomanPS-BoldMT-116"/>
     <use x="989.607422" xlink:href="#TimesNewRomanPS-BoldMT-32"/>
     <use x="1014.607422" xlink:href="#TimesNewRomanPS-BoldMT-102"/>
     <use x="1047.908203" xlink:href="#TimesNewRomanPS-BoldMT-101"/>
     <use x="1092.292969" xlink:href="#TimesNewRomanPS-BoldMT-97"/>
     <use x="1142.292969" xlink:href="#TimesNewRomanPS-BoldMT-116"/>
     <use x="1175.59375" xlink:href="#TimesNewRomanPS-BoldMT-117"/>
     <use x="1231.208984" xlink:href="#TimesNewRomanPS-BoldMT-114"/>
     <use x="1273.84375" xlink:href="#TimesNewRomanPS-BoldMT-101"/>
     <use x="1318.228516" xlink:href="#TimesNewRomanPS-BoldMT-32"/>
     <use x="1343.228516" xlink:href="#TimesNewRomanPS-BoldMT-99"/>
     <use x="1387.613281" xlink:href="#TimesNewRomanPS-BoldMT-111"/>
     <use x="1437.613281" xlink:href="#TimesNewRomanPS-BoldMT-109"/>
     <use x="1520.914062" xlink:href="#TimesNewRomanPS-BoldMT-98"/>
     <use x="1576.529297" xlink:href="#TimesNewRomanPS-BoldMT-105"/>
     <use x="1604.3125" xlink:href="#TimesNewRomanPS-BoldMT-110"/>
     <use x="1659.927734" xlink:href="#TimesNewRomanPS-BoldMT-97"/>
     <use x="1709.927734" xlink:href="#TimesNewRomanPS-BoldMT-116"/>
     <use x="1743.228516" xlink:href="#TimesNewRomanPS-BoldMT-105"/>
     <use x="1771.011719" xlink:href="#TimesNewRomanPS-BoldMT-111"/>
     <use x="1821.011719" xlink:href="#TimesNewRomanPS-BoldMT-110"/>
     <use x="1876.626953" xlink:href="#TimesNewRomanPS-BoldMT-115"/>
     <use x="1915.542969" xlink:href="#TimesNewRomanPS-BoldMT-32"/>
     <use x="1940.542969" xlink:href="#TimesNewRomanPS-BoldMT-111"/>
     <use x="1990.542969" xlink:href="#TimesNewRomanPS-BoldMT-110"/>
     <use x="2046.158203" xlink:href="#TimesNewRomanPS-BoldMT-32"/>
     <use x="2071.158203" xlink:href="#TimesNewRomanPS-BoldMT-78"/>
     <use x="2143.375" xlink:href="#TimesNewRomanPS-BoldMT-80"/>
     <use x="2204.458984" xlink:href="#TimesNewRomanPS-BoldMT-73"/>
     <use x="2243.375" xlink:href="#TimesNewRomanPS-BoldMT-110"/>
     <use x="2298.990234" xlink:href="#TimesNewRomanPS-BoldMT-116"/>
     <use x="2332.291016" xlink:href="#TimesNewRomanPS-BoldMT-101"/>
     <use x="2376.675781" xlink:href="#TimesNewRomanPS-BoldMT-114"/>
     <use x="2419.310547" xlink:href="#TimesNewRomanPS-BoldMT-32"/>
     <use x="2444.310547" xlink:href="#TimesNewRomanPS-BoldMT-49"/>
     <use x="2494.310547" xlink:href="#TimesNewRomanPS-BoldMT-48"/>
     <use x="2544.310547" xlink:href="#TimesNewRomanPS-BoldMT-52"/>
     <use x="2594.310547" xlink:href="#TimesNewRomanPS-BoldMT-49"/>
     <use x="2644.310547" xlink:href="#TimesNewRomanPS-BoldMT-50"/>
    </g>
   </g>
   <g id="legend_1">
    <g id="patch_7">
     <path d="M 349.449361 294.184063 
L 491.982486 294.184063 
Q 493.382486 294.184063 493.382486 292.784063 
L 493.382486 263.792031 
Q 493.382486 262.392031 491.982486 262.392031 
L 349.449361 262.392031 
Q 348.049361 262.392031 348.049361 263.792031 
L 348.049361 292.784063 
Q 348.049361 294.184063 349.449361 294.184063 
z
" style="fill:#ffffff;opacity:0.8;stroke:#cccccc;stroke-linejoin:miter;"/>
    </g>
    <g id="line2d_16">
     <path d="M 350.849361 267.642031 
L 364.849361 267.642031 
" style="fill:none;stroke:#1f77b4;stroke-linecap:square;"/>
    </g>
    <g id="line2d_17"/>
    <g id="text_16">
     <!-- with side information (area = 0.9976) -->
     <defs>
      <path d="M 48.640625 -1.375 
L 36.140625 32.125 
L 23.875 -1.375 
L 21.34375 -1.375 
L 9.1875 31.734375 
Q 6.453125 39.3125 4.546875 41.609375 
Q 3.328125 43.171875 0.828125 43.84375 
L 0.828125 45.65625 
L 23.875 45.65625 
L 23.875 43.84375 
Q 21.53125 43.84375 20.65625 43.15625 
Q 19.78125 42.484375 19.78125 41.609375 
Q 19.78125 40.765625 21.34375 36.625 
L 28.03125 18.796875 
L 34.46875 36.625 
L 33.984375 37.796875 
Q 32.515625 41.453125 31.421875 42.453125 
Q 30.328125 43.453125 28.03125 43.84375 
L 28.03125 45.65625 
L 51.421875 45.65625 
L 51.421875 43.84375 
Q 48.6875 43.703125 47.953125 43.09375 
Q 47.21875 42.484375 47.21875 41.359375 
Q 47.21875 40.28125 48.640625 36.625 
L 55.078125 18.796875 
L 60.9375 35.203125 
Q 62.203125 38.71875 62.203125 39.984375 
Q 62.203125 41.890625 61.28125 42.765625 
Q 60.359375 43.65625 57.671875 43.84375 
L 57.671875 45.65625 
L 71.1875 45.65625 
L 71.1875 43.84375 
Q 68.953125 43.5625 67.625 42.265625 
Q 66.3125 40.96875 64.203125 34.90625 
L 51.421875 -1.375 
z
" id="TimesNewRomanPS-BoldMT-119"/>
      <path d="M 22.015625 66.21875 
L 22.015625 39.796875 
Q 25.78125 43.75 28.90625 45.375 
Q 32.03125 47.015625 35.40625 47.015625 
Q 39.703125 47.015625 42.75 44.578125 
Q 45.796875 42.140625 46.796875 38.84375 
Q 47.796875 35.546875 47.796875 27.734375 
L 47.796875 9.90625 
Q 47.796875 4.6875 48.765625 3.390625 
Q 49.75 2.09375 52.734375 1.765625 
L 52.734375 0 
L 29.59375 0 
L 29.59375 1.765625 
Q 32.03125 2.09375 33.25 3.71875 
Q 34.125 4.984375 34.125 9.90625 
L 34.125 30.28125 
Q 34.125 35.9375 33.6875 37.375 
Q 33.25 38.8125 32.203125 39.625 
Q 31.15625 40.4375 29.828125 40.4375 
Q 27.875 40.4375 26.015625 39.09375 
Q 24.171875 37.75 22.015625 34.375 
L 22.015625 9.90625 
Q 22.015625 5.03125 22.75 3.8125 
Q 23.6875 2.15625 26.5625 1.765625 
L 26.5625 0 
L 3.421875 0 
L 3.421875 1.765625 
Q 6.296875 2.046875 7.515625 3.609375 
Q 8.34375 4.6875 8.34375 9.90625 
L 8.34375 56.296875 
Q 8.34375 61.46875 7.390625 62.734375 
Q 6.453125 64.015625 3.421875 64.40625 
L 3.421875 66.21875 
z
" id="TimesNewRomanPS-BoldMT-104"/>
      <path d="M 32.125 67.71875 
L 32.125 65.484375 
Q 27.046875 62.15625 24.65625 58.984375 
Q 21.34375 54.59375 19.484375 47.703125 
Q 17.140625 39.15625 17.140625 23.828125 
Q 17.140625 9.375 19.265625 1.359375 
Q 21.390625 -6.640625 25.046875 -11.578125 
Q 27.59375 -14.984375 32.125 -17.578125 
L 32.125 -20.015625 
Q 20.359375 -16.0625 12.171875 -3.875 
Q 4 8.296875 4 24.125 
Q 4 39.75 12.15625 51.78125 
Q 20.3125 63.8125 32.125 67.71875 
z
" id="TimesNewRomanPS-BoldMT-40"/>
      <path d="M 1.953125 44.140625 
L 55.375 44.140625 
L 55.375 37.796875 
L 1.953125 37.796875 
z
M 1.953125 28.171875 
L 55.375 28.171875 
L 55.375 21.828125 
L 1.953125 21.828125 
z
" id="TimesNewRomanPS-BoldMT-61"/>
      <path d="M 3.078125 -1.375 
L 3.078125 0 
Q 11.1875 1.859375 16.828125 5.46875 
Q 22.46875 9.078125 25.75 14.40625 
Q 29.046875 19.734375 30.375 26.65625 
Q 27.34375 25.09375 25.21875 24.484375 
Q 23.09375 23.875 20.75 23.875 
Q 13.234375 23.875 8.21875 29.296875 
Q 3.21875 34.71875 3.21875 44.140625 
Q 3.21875 50.6875 5.921875 56.125 
Q 8.640625 61.578125 13.671875 64.578125 
Q 18.703125 67.578125 24.125 67.578125 
Q 29.9375 67.578125 35.109375 64.25 
Q 40.28125 60.9375 43.359375 54.640625 
Q 46.4375 48.34375 46.4375 40.28125 
Q 46.4375 29.828125 41.421875 20.25 
Q 36.421875 10.6875 26.515625 4.90625 
Q 16.609375 -0.875 3.078125 -1.375 
z
M 31.109375 30.765625 
Q 31.59375 36.234375 31.59375 40.375 
Q 31.59375 49.265625 29.546875 56.9375 
Q 28.375 61.1875 26.078125 63.1875 
Q 24.859375 64.265625 22.90625 64.265625 
Q 20.453125 64.265625 19.09375 62.15625 
Q 17.1875 59.28125 17.1875 51.171875 
Q 17.1875 37.640625 20.40625 32.515625 
Q 22.515625 29.203125 26.078125 29.203125 
Q 27.984375 29.203125 31.109375 30.765625 
z
" id="TimesNewRomanPS-BoldMT-57"/>
      <path d="M 17.71875 -1.375 
L 35.75 53.265625 
L 22.015625 53.265625 
Q 13.96875 53.265625 9.90625 51.171875 
Q 7.078125 49.703125 5.21875 45.65625 
L 3.375 45.65625 
L 8.15625 66.21875 
L 47.609375 66.21875 
L 25.390625 -1.375 
z
" id="TimesNewRomanPS-BoldMT-55"/>
      <path d="M 1.21875 -20.015625 
L 1.21875 -17.78125 
Q 6.296875 -14.40625 8.6875 -11.234375 
Q 11.96875 -6.84375 13.875 0 
Q 16.21875 8.59375 16.21875 23.921875 
Q 16.21875 38.375 14.09375 46.359375 
Q 11.96875 54.34375 8.296875 59.28125 
Q 5.765625 62.703125 1.21875 65.28125 
L 1.21875 67.71875 
Q 12.984375 63.765625 21.15625 51.578125 
Q 29.34375 39.40625 29.34375 23.578125 
Q 29.34375 8.015625 21.15625 -4.015625 
Q 12.984375 -16.0625 1.21875 -20.015625 
z
" id="TimesNewRomanPS-BoldMT-41"/>
     </defs>
     <g transform="translate(370.449361 270.092031)scale(0.07 -0.07)">
      <use xlink:href="#TimesNewRomanPS-BoldMT-119"/>
      <use x="72.216797" xlink:href="#TimesNewRomanPS-BoldMT-105"/>
      <use x="100" xlink:href="#TimesNewRomanPS-BoldMT-116"/>
      <use x="133.300781" xlink:href="#TimesNewRomanPS-BoldMT-104"/>
      <use x="188.916016" xlink:href="#TimesNewRomanPS-BoldMT-32"/>
      <use x="213.916016" xlink:href="#TimesNewRomanPS-BoldMT-115"/>
      <use x="252.832031" xlink:href="#TimesNewRomanPS-BoldMT-105"/>
      <use x="280.615234" xlink:href="#TimesNewRomanPS-BoldMT-100"/>
      <use x="336.230469" xlink:href="#TimesNewRomanPS-BoldMT-101"/>
      <use x="380.615234" xlink:href="#TimesNewRomanPS-BoldMT-32"/>
      <use x="405.615234" xlink:href="#TimesNewRomanPS-BoldMT-105"/>
      <use x="433.398438" xlink:href="#TimesNewRomanPS-BoldMT-110"/>
      <use x="489.013672" xlink:href="#TimesNewRomanPS-BoldMT-102"/>
      <use x="522.314453" xlink:href="#TimesNewRomanPS-BoldMT-111"/>
      <use x="572.314453" xlink:href="#TimesNewRomanPS-BoldMT-114"/>
      <use x="616.699219" xlink:href="#TimesNewRomanPS-BoldMT-109"/>
      <use x="700" xlink:href="#TimesNewRomanPS-BoldMT-97"/>
      <use x="750" xlink:href="#TimesNewRomanPS-BoldMT-116"/>
      <use x="783.300781" xlink:href="#TimesNewRomanPS-BoldMT-105"/>
      <use x="811.083984" xlink:href="#TimesNewRomanPS-BoldMT-111"/>
      <use x="861.083984" xlink:href="#TimesNewRomanPS-BoldMT-110"/>
      <use x="916.699219" xlink:href="#TimesNewRomanPS-BoldMT-32"/>
      <use x="941.699219" xlink:href="#TimesNewRomanPS-BoldMT-40"/>
      <use x="975" xlink:href="#TimesNewRomanPS-BoldMT-97"/>
      <use x="1025" xlink:href="#TimesNewRomanPS-BoldMT-114"/>
      <use x="1067.634766" xlink:href="#TimesNewRomanPS-BoldMT-101"/>
      <use x="1112.019531" xlink:href="#TimesNewRomanPS-BoldMT-97"/>
      <use x="1162.019531" xlink:href="#TimesNewRomanPS-BoldMT-32"/>
      <use x="1187.019531" xlink:href="#TimesNewRomanPS-BoldMT-61"/>
      <use x="1244.001953" xlink:href="#TimesNewRomanPS-BoldMT-32"/>
      <use x="1269.001953" xlink:href="#TimesNewRomanPS-BoldMT-48"/>
      <use x="1319.001953" xlink:href="#TimesNewRomanPS-BoldMT-46"/>
      <use x="1344.001953" xlink:href="#TimesNewRomanPS-BoldMT-57"/>
      <use x="1394.001953" xlink:href="#TimesNewRomanPS-BoldMT-57"/>
      <use x="1444.001953" xlink:href="#TimesNewRomanPS-BoldMT-55"/>
      <use x="1494.001953" xlink:href="#TimesNewRomanPS-BoldMT-54"/>
      <use x="1544.001953" xlink:href="#TimesNewRomanPS-BoldMT-41"/>
     </g>
    </g>
    <g id="line2d_18">
     <path d="M 350.849361 277.539375 
L 364.849361 277.539375 
" style="fill:none;stroke:#ff7f0e;stroke-linecap:square;"/>
    </g>
    <g id="line2d_19"/>
    <g id="text_17">
     <!-- without side information (area = 0.9981) -->
     <g transform="translate(370.449361 279.989375)scale(0.07 -0.07)">
      <use xlink:href="#TimesNewRomanPS-BoldMT-119"/>
      <use x="72.216797" xlink:href="#TimesNewRomanPS-BoldMT-105"/>
      <use x="100" xlink:href="#TimesNewRomanPS-BoldMT-116"/>
      <use x="133.300781" xlink:href="#TimesNewRomanPS-BoldMT-104"/>
      <use x="188.916016" xlink:href="#TimesNewRomanPS-BoldMT-111"/>
      <use x="238.916016" xlink:href="#TimesNewRomanPS-BoldMT-117"/>
      <use x="294.53125" xlink:href="#TimesNewRomanPS-BoldMT-116"/>
      <use x="327.832031" xlink:href="#TimesNewRomanPS-BoldMT-32"/>
      <use x="352.832031" xlink:href="#TimesNewRomanPS-BoldMT-115"/>
      <use x="391.748047" xlink:href="#TimesNewRomanPS-BoldMT-105"/>
      <use x="419.53125" xlink:href="#TimesNewRomanPS-BoldMT-100"/>
      <use x="475.146484" xlink:href="#TimesNewRomanPS-BoldMT-101"/>
      <use x="519.53125" xlink:href="#TimesNewRomanPS-BoldMT-32"/>
      <use x="544.53125" xlink:href="#TimesNewRomanPS-BoldMT-105"/>
      <use x="572.314453" xlink:href="#TimesNewRomanPS-BoldMT-110"/>
      <use x="627.929688" xlink:href="#TimesNewRomanPS-BoldMT-102"/>
      <use x="661.230469" xlink:href="#TimesNewRomanPS-BoldMT-111"/>
      <use x="711.230469" xlink:href="#TimesNewRomanPS-BoldMT-114"/>
      <use x="755.615234" xlink:href="#TimesNewRomanPS-BoldMT-109"/>
      <use x="838.916016" xlink:href="#TimesNewRomanPS-BoldMT-97"/>
      <use x="888.916016" xlink:href="#TimesNewRomanPS-BoldMT-116"/>
      <use x="922.216797" xlink:href="#TimesNewRomanPS-BoldMT-105"/>
      <use x="950" xlink:href="#TimesNewRomanPS-BoldMT-111"/>
      <use x="1000" xlink:href="#TimesNewRomanPS-BoldMT-110"/>
      <use x="1055.615234" xlink:href="#TimesNewRomanPS-BoldMT-32"/>
      <use x="1080.615234" xlink:href="#TimesNewRomanPS-BoldMT-40"/>
      <use x="1113.916016" xlink:href="#TimesNewRomanPS-BoldMT-97"/>
      <use x="1163.916016" xlink:href="#TimesNewRomanPS-BoldMT-114"/>
      <use x="1206.550781" xlink:href="#TimesNewRomanPS-BoldMT-101"/>
      <use x="1250.935547" xlink:href="#TimesNewRomanPS-BoldMT-97"/>
      <use x="1300.935547" xlink:href="#TimesNewRomanPS-BoldMT-32"/>
      <use x="1325.935547" xlink:href="#TimesNewRomanPS-BoldMT-61"/>
      <use x="1382.917969" xlink:href="#TimesNewRomanPS-BoldMT-32"/>
      <use x="1407.917969" xlink:href="#TimesNewRomanPS-BoldMT-48"/>
      <use x="1457.917969" xlink:href="#TimesNewRomanPS-BoldMT-46"/>
      <use x="1482.917969" xlink:href="#TimesNewRomanPS-BoldMT-57"/>
      <use x="1532.917969" xlink:href="#TimesNewRomanPS-BoldMT-57"/>
      <use x="1582.917969" xlink:href="#TimesNewRomanPS-BoldMT-56"/>
      <use x="1632.917969" xlink:href="#TimesNewRomanPS-BoldMT-49"/>
      <use x="1682.917969" xlink:href="#TimesNewRomanPS-BoldMT-41"/>
     </g>
    </g>
    <g id="line2d_20">
     <path d="M 350.849361 287.436719 
L 364.849361 287.436719 
" style="fill:none;stroke:#000000;stroke-dasharray:5.55,2.4;stroke-dashoffset:0;stroke-width:1.5;"/>
    </g>
    <g id="line2d_21"/>
    <g id="text_18">
     <!-- Luck -->
     <defs>
      <path d="M 63.140625 23.25 
L 60.640625 0 
L 1.859375 0 
L 1.859375 1.8125 
L 4.046875 1.8125 
Q 6.9375 1.8125 8.6875 2.828125 
Q 9.96875 3.515625 10.640625 5.171875 
Q 11.1875 6.34375 11.1875 11.328125 
L 11.1875 54.890625 
Q 11.1875 59.96875 10.640625 61.234375 
Q 10.109375 62.5 8.46875 63.453125 
Q 6.84375 64.40625 4.046875 64.40625 
L 1.859375 64.40625 
L 1.859375 66.21875 
L 37.15625 66.21875 
L 37.15625 64.40625 
L 34.28125 64.40625 
Q 31.390625 64.40625 29.640625 63.375 
Q 28.375 62.703125 27.640625 61.03125 
Q 27.09375 59.859375 27.09375 54.890625 
L 27.09375 12.703125 
Q 27.09375 7.625 27.671875 6.21875 
Q 28.265625 4.828125 29.984375 4.15625 
Q 31.203125 3.71875 35.890625 3.71875 
L 41.40625 3.71875 
Q 46.6875 3.71875 50.203125 5.5625 
Q 53.71875 7.421875 56.28125 11.421875 
Q 58.84375 15.4375 61.140625 23.25 
z
" id="TimesNewRomanPS-BoldMT-76"/>
      <path d="M 21.921875 66.21875 
L 21.921875 22.65625 
L 32.515625 33.0625 
Q 35.796875 36.234375 36.59375 37.640625 
Q 37.40625 39.0625 37.40625 40.375 
Q 37.40625 41.703125 36.328125 42.578125 
Q 35.25 43.453125 32.125 43.84375 
L 32.125 45.65625 
L 52.59375 45.65625 
L 52.59375 43.84375 
Q 49.65625 43.703125 47.453125 42.453125 
Q 45.265625 41.21875 38.875 34.96875 
L 33.890625 30.078125 
L 44.625 14.359375 
Q 51.125 4.78125 52.34375 3.609375 
Q 54 1.953125 56.546875 1.765625 
L 56.546875 0 
L 32.953125 0 
L 32.953125 1.765625 
Q 34.515625 1.765625 35.21875 2.34375 
Q 35.9375 2.9375 35.9375 3.609375 
Q 35.9375 4.734375 33.890625 7.765625 
L 24.859375 21 
L 21.921875 18.109375 
L 21.921875 9.90625 
Q 21.921875 4.6875 22.890625 3.390625 
Q 23.875 2.09375 26.90625 1.765625 
L 26.90625 0 
L 3.328125 0 
L 3.328125 1.765625 
Q 6.203125 2.046875 7.421875 3.609375 
Q 8.25 4.6875 8.25 9.90625 
L 8.25 56.296875 
Q 8.25 61.46875 7.296875 62.734375 
Q 6.34375 64.015625 3.328125 64.40625 
L 3.328125 66.21875 
z
" id="TimesNewRomanPS-BoldMT-107"/>
     </defs>
     <g transform="translate(370.449361 289.886719)scale(0.07 -0.07)">
      <use xlink:href="#TimesNewRomanPS-BoldMT-76"/>
      <use x="66.699219" xlink:href="#TimesNewRomanPS-BoldMT-117"/>
      <use x="122.314453" xlink:href="#TimesNewRomanPS-BoldMT-99"/>
      <use x="166.699219" xlink:href="#TimesNewRomanPS-BoldMT-107"/>
     </g>
    </g>
   </g>
  </g>
  <g id="axes_2">
   <g id="patch_8">
    <path d="M 588.191577 297.684063 
L 1044.737031 297.684063 
L 1044.737031 20.484063 
L 588.191577 20.484063 
z
" style="fill:#ffffff;"/>
   </g>
   <g id="matplotlib.axis_3">
    <g id="xtick_7">
     <g id="line2d_22">
      <g>
       <use style="stroke:#000000;stroke-width:0.8;" x="608.943643" xlink:href="#me47c9e2a09" y="297.684063"/>
      </g>
     </g>
     <g id="text_19">
      <!-- 0.0 -->
      <g transform="translate(602.693643 311.305938)scale(0.1 -0.1)">
       <use xlink:href="#TimesNewRomanPS-BoldMT-48"/>
       <use x="50" xlink:href="#TimesNewRomanPS-BoldMT-46"/>
       <use x="75" xlink:href="#TimesNewRomanPS-BoldMT-48"/>
      </g>
     </g>
    </g>
    <g id="xtick_8">
     <g id="line2d_23">
      <g>
       <use style="stroke:#000000;stroke-width:0.8;" x="691.951907" xlink:href="#me47c9e2a09" y="297.684063"/>
      </g>
     </g>
     <g id="text_20">
      <!-- 0.2 -->
      <g transform="translate(685.701907 311.305938)scale(0.1 -0.1)">
       <use xlink:href="#TimesNewRomanPS-BoldMT-48"/>
       <use x="50" xlink:href="#TimesNewRomanPS-BoldMT-46"/>
       <use x="75" xlink:href="#TimesNewRomanPS-BoldMT-50"/>
      </g>
     </g>
    </g>
    <g id="xtick_9">
     <g id="line2d_24">
      <g>
       <use style="stroke:#000000;stroke-width:0.8;" x="774.960172" xlink:href="#me47c9e2a09" y="297.684063"/>
      </g>
     </g>
     <g id="text_21">
      <!-- 0.4 -->
      <g transform="translate(768.710172 311.305938)scale(0.1 -0.1)">
       <use xlink:href="#TimesNewRomanPS-BoldMT-48"/>
       <use x="50" xlink:href="#TimesNewRomanPS-BoldMT-46"/>
       <use x="75" xlink:href="#TimesNewRomanPS-BoldMT-52"/>
      </g>
     </g>
    </g>
    <g id="xtick_10">
     <g id="line2d_25">
      <g>
       <use style="stroke:#000000;stroke-width:0.8;" x="857.968436" xlink:href="#me47c9e2a09" y="297.684063"/>
      </g>
     </g>
     <g id="text_22">
      <!-- 0.6 -->
      <g transform="translate(851.718436 311.305938)scale(0.1 -0.1)">
       <use xlink:href="#TimesNewRomanPS-BoldMT-48"/>
       <use x="50" xlink:href="#TimesNewRomanPS-BoldMT-46"/>
       <use x="75" xlink:href="#TimesNewRomanPS-BoldMT-54"/>
      </g>
     </g>
    </g>
    <g id="xtick_11">
     <g id="line2d_26">
      <g>
       <use style="stroke:#000000;stroke-width:0.8;" x="940.976701" xlink:href="#me47c9e2a09" y="297.684063"/>
      </g>
     </g>
     <g id="text_23">
      <!-- 0.8 -->
      <g transform="translate(934.726701 311.305938)scale(0.1 -0.1)">
       <use xlink:href="#TimesNewRomanPS-BoldMT-48"/>
       <use x="50" xlink:href="#TimesNewRomanPS-BoldMT-46"/>
       <use x="75" xlink:href="#TimesNewRomanPS-BoldMT-56"/>
      </g>
     </g>
    </g>
    <g id="xtick_12">
     <g id="line2d_27">
      <g>
       <use style="stroke:#000000;stroke-width:0.8;" x="1023.984965" xlink:href="#me47c9e2a09" y="297.684063"/>
      </g>
     </g>
     <g id="text_24">
      <!-- 1.0 -->
      <g transform="translate(1017.734965 311.305938)scale(0.1 -0.1)">
       <use xlink:href="#TimesNewRomanPS-BoldMT-49"/>
       <use x="50" xlink:href="#TimesNewRomanPS-BoldMT-46"/>
       <use x="75" xlink:href="#TimesNewRomanPS-BoldMT-48"/>
      </g>
     </g>
    </g>
    <g id="text_25">
     <!-- False Positive Rate -->
     <g transform="translate(772.171257 324.729063)scale(0.11 -0.11)">
      <use xlink:href="#TimesNewRomanPS-BoldMT-70"/>
      <use x="61.083984" xlink:href="#TimesNewRomanPS-BoldMT-97"/>
      <use x="111.083984" xlink:href="#TimesNewRomanPS-BoldMT-108"/>
      <use x="138.867188" xlink:href="#TimesNewRomanPS-BoldMT-115"/>
      <use x="177.783203" xlink:href="#TimesNewRomanPS-BoldMT-101"/>
      <use x="222.167969" xlink:href="#TimesNewRomanPS-BoldMT-32"/>
      <use x="247.167969" xlink:href="#TimesNewRomanPS-BoldMT-80"/>
      <use x="308.251953" xlink:href="#TimesNewRomanPS-BoldMT-111"/>
      <use x="358.251953" xlink:href="#TimesNewRomanPS-BoldMT-115"/>
      <use x="397.167969" xlink:href="#TimesNewRomanPS-BoldMT-105"/>
      <use x="424.951172" xlink:href="#TimesNewRomanPS-BoldMT-116"/>
      <use x="458.251953" xlink:href="#TimesNewRomanPS-BoldMT-105"/>
      <use x="486.035156" xlink:href="#TimesNewRomanPS-BoldMT-118"/>
      <use x="536.035156" xlink:href="#TimesNewRomanPS-BoldMT-101"/>
      <use x="580.419922" xlink:href="#TimesNewRomanPS-BoldMT-32"/>
      <use x="605.419922" xlink:href="#TimesNewRomanPS-BoldMT-82"/>
      <use x="677.636719" xlink:href="#TimesNewRomanPS-BoldMT-97"/>
      <use x="727.636719" xlink:href="#TimesNewRomanPS-BoldMT-116"/>
      <use x="760.9375" xlink:href="#TimesNewRomanPS-BoldMT-101"/>
     </g>
    </g>
   </g>
   <g id="matplotlib.axis_4">
    <g id="ytick_7">
     <g id="line2d_28">
      <g>
       <use style="stroke:#000000;stroke-width:0.8;" x="588.191577" xlink:href="#m4e64fc8518" y="285.084063"/>
      </g>
     </g>
     <g id="text_26">
      <!-- 0.0 -->
      <g transform="translate(568.691577 288.395)scale(0.1 -0.1)">
       <use xlink:href="#TimesNewRomanPS-BoldMT-48"/>
       <use x="50" xlink:href="#TimesNewRomanPS-BoldMT-46"/>
       <use x="75" xlink:href="#TimesNewRomanPS-BoldMT-48"/>
      </g>
     </g>
    </g>
    <g id="ytick_8">
     <g id="line2d_29">
      <g>
       <use style="stroke:#000000;stroke-width:0.8;" x="588.191577" xlink:href="#m4e64fc8518" y="234.684063"/>
      </g>
     </g>
     <g id="text_27">
      <!-- 0.2 -->
      <g transform="translate(568.691577 237.995)scale(0.1 -0.1)">
       <use xlink:href="#TimesNewRomanPS-BoldMT-48"/>
       <use x="50" xlink:href="#TimesNewRomanPS-BoldMT-46"/>
       <use x="75" xlink:href="#TimesNewRomanPS-BoldMT-50"/>
      </g>
     </g>
    </g>
    <g id="ytick_9">
     <g id="line2d_30">
      <g>
       <use style="stroke:#000000;stroke-width:0.8;" x="588.191577" xlink:href="#m4e64fc8518" y="184.284063"/>
      </g>
     </g>
     <g id="text_28">
      <!-- 0.4 -->
      <g transform="translate(568.691577 187.595)scale(0.1 -0.1)">
       <use xlink:href="#TimesNewRomanPS-BoldMT-48"/>
       <use x="50" xlink:href="#TimesNewRomanPS-BoldMT-46"/>
       <use x="75" xlink:href="#TimesNewRomanPS-BoldMT-52"/>
      </g>
     </g>
    </g>
    <g id="ytick_10">
     <g id="line2d_31">
      <g>
       <use style="stroke:#000000;stroke-width:0.8;" x="588.191577" xlink:href="#m4e64fc8518" y="133.884063"/>
      </g>
     </g>
     <g id="text_29">
      <!-- 0.6 -->
      <g transform="translate(568.691577 137.195)scale(0.1 -0.1)">
       <use xlink:href="#TimesNewRomanPS-BoldMT-48"/>
       <use x="50" xlink:href="#TimesNewRomanPS-BoldMT-46"/>
       <use x="75" xlink:href="#TimesNewRomanPS-BoldMT-54"/>
      </g>
     </g>
    </g>
    <g id="ytick_11">
     <g id="line2d_32">
      <g>
       <use style="stroke:#000000;stroke-width:0.8;" x="588.191577" xlink:href="#m4e64fc8518" y="83.484063"/>
      </g>
     </g>
     <g id="text_30">
      <!-- 0.8 -->
      <g transform="translate(568.691577 86.795)scale(0.1 -0.1)">
       <use xlink:href="#TimesNewRomanPS-BoldMT-48"/>
       <use x="50" xlink:href="#TimesNewRomanPS-BoldMT-46"/>
       <use x="75" xlink:href="#TimesNewRomanPS-BoldMT-56"/>
      </g>
     </g>
    </g>
    <g id="ytick_12">
     <g id="line2d_33">
      <g>
       <use style="stroke:#000000;stroke-width:0.8;" x="588.191577" xlink:href="#m4e64fc8518" y="33.084063"/>
      </g>
     </g>
     <g id="text_31">
      <!-- 1.0 -->
      <g transform="translate(568.691577 36.395)scale(0.1 -0.1)">
       <use xlink:href="#TimesNewRomanPS-BoldMT-49"/>
       <use x="50" xlink:href="#TimesNewRomanPS-BoldMT-46"/>
       <use x="75" xlink:href="#TimesNewRomanPS-BoldMT-48"/>
      </g>
     </g>
    </g>
    <g id="text_32">
     <!-- True Positive Rate -->
     <g transform="translate(562.338608 202.362188)rotate(-90)scale(0.11 -0.11)">
      <use xlink:href="#TimesNewRomanPS-BoldMT-84"/>
      <use x="59.324219" xlink:href="#TimesNewRomanPS-BoldMT-114"/>
      <use x="103.708984" xlink:href="#TimesNewRomanPS-BoldMT-117"/>
      <use x="159.324219" xlink:href="#TimesNewRomanPS-BoldMT-101"/>
      <use x="203.708984" xlink:href="#TimesNewRomanPS-BoldMT-32"/>
      <use x="228.708984" xlink:href="#TimesNewRomanPS-BoldMT-80"/>
      <use x="289.792969" xlink:href="#TimesNewRomanPS-BoldMT-111"/>
      <use x="339.792969" xlink:href="#TimesNewRomanPS-BoldMT-115"/>
      <use x="378.708984" xlink:href="#TimesNewRomanPS-BoldMT-105"/>
      <use x="406.492188" xlink:href="#TimesNewRomanPS-BoldMT-116"/>
      <use x="439.792969" xlink:href="#TimesNewRomanPS-BoldMT-105"/>
      <use x="467.576172" xlink:href="#TimesNewRomanPS-BoldMT-118"/>
      <use x="517.576172" xlink:href="#TimesNewRomanPS-BoldMT-101"/>
      <use x="561.960938" xlink:href="#TimesNewRomanPS-BoldMT-32"/>
      <use x="586.960938" xlink:href="#TimesNewRomanPS-BoldMT-82"/>
      <use x="659.177734" xlink:href="#TimesNewRomanPS-BoldMT-97"/>
      <use x="709.177734" xlink:href="#TimesNewRomanPS-BoldMT-116"/>
      <use x="742.478516" xlink:href="#TimesNewRomanPS-BoldMT-101"/>
     </g>
    </g>
   </g>
   <g id="line2d_34">
    <path clip-path="url(#pa159f16c03)" d="M 608.943643 285.084063 
L 611.193189 251.620648 
L 611.193189 239.327965 
L 611.193189 234.547477 
L 611.193189 226.352355 
L 611.193189 224.303575 
L 611.193189 223.620648 
L 611.193189 220.206014 
L 611.193189 219.523087 
L 611.193189 215.425526 
L 611.193189 214.059672 
L 611.193189 213.376745 
L 611.193189 212.010892 
L 611.193189 209.962111 
L 611.193189 207.230404 
L 611.193189 206.547477 
L 611.193189 205.181623 
L 611.193189 204.498697 
L 611.193189 202.449916 
L 611.193189 201.766989 
L 612.317963 201.766989 
L 612.317963 200.401136 
L 612.317963 199.718209 
L 612.317963 197.669428 
L 612.317963 194.937721 
L 612.317963 193.571867 
L 612.317963 191.523087 
L 612.317963 190.157233 
L 612.317963 186.059672 
L 612.317963 184.693819 
L 612.317963 176.498697 
L 612.317963 175.132843 
L 612.317963 173.766989 
L 612.317963 172.401136 
L 612.317963 169.669428 
L 612.317963 168.303575 
L 612.317963 166.254794 
L 612.317963 164.888941 
L 612.317963 160.108453 
L 612.317963 158.742599 
L 612.317963 147.132843 
L 612.317963 145.766989 
L 612.317963 145.084063 
L 612.317963 143.718209 
L 612.317963 88.401136 
L 613.442736 88.401136 
L 613.442736 82.937721 
L 614.567509 82.937721 
L 614.567509 57.669428 
L 615.692282 57.669428 
L 615.692282 56.986502 
L 616.817055 56.986502 
L 616.817055 56.303575 
L 619.066602 56.303575 
L 619.066602 54.937721 
L 620.191375 54.937721 
L 620.191375 54.254794 
L 622.440922 54.254794 
L 622.440922 52.888941 
L 623.565695 52.888941 
L 623.565695 51.523087 
L 632.563881 51.523087 
L 632.563881 50.84016 
L 635.9382 50.84016 
L 635.9382 50.157233 
L 638.187747 50.157233 
L 638.187747 48.79138 
L 639.31252 48.79138 
L 639.31252 48.108453 
L 640.437293 48.108453 
L 640.437293 46.742599 
L 643.811613 46.742599 
L 643.811613 45.376745 
L 647.185933 45.376745 
L 647.185933 44.693819 
L 671.930944 44.693819 
L 671.930944 44.010892 
L 673.055717 44.010892 
L 673.055717 43.327965 
L 678.679583 43.327965 
L 678.679583 42.645038 
L 705.674141 42.645038 
L 705.674141 41.962111 
L 770.910988 41.962111 
L 770.910988 41.279184 
L 788.90736 41.279184 
L 788.90736 40.596258 
L 800.155092 40.596258 
L 800.155092 39.913331 
L 813.652371 39.913331 
L 813.652371 39.230404 
L 823.77533 39.230404 
L 823.77533 38.547477 
L 835.023062 38.547477 
L 835.023062 37.86455 
L 845.146021 37.86455 
L 845.146021 37.181623 
L 851.894661 37.181623 
L 851.894661 36.498697 
L 873.265352 36.498697 
L 873.265352 35.81577 
L 883.388311 35.81577 
L 883.388311 35.132843 
L 907.008549 35.132843 
L 907.008549 34.449916 
L 921.630601 34.449916 
L 921.630601 33.766989 
L 1016.111553 33.766989 
L 1016.111553 33.084063 
L 1023.984965 33.084063 
" style="fill:none;stroke:#1f77b4;stroke-linecap:square;"/>
   </g>
   <g id="line2d_35">
    <path clip-path="url(#pa159f16c03)" d="M 608.943643 285.084063 
L 611.193189 211.327965 
L 611.193189 199.035282 
L 611.193189 195.620648 
L 611.193189 191.523087 
L 611.193189 186.059672 
L 611.193189 183.327965 
L 611.193189 181.279184 
L 611.193189 179.913331 
L 611.193189 179.230404 
L 611.193189 175.81577 
L 611.193189 171.718209 
L 611.193189 171.035282 
L 611.193189 169.669428 
L 611.193189 166.937721 
L 611.193189 165.571867 
L 611.193189 163.523087 
L 611.193189 160.79138 
L 611.193189 159.425526 
L 611.193189 157.376745 
L 611.193189 154.645038 
L 611.193189 153.279184 
L 611.193189 151.913331 
L 611.193189 151.230404 
L 611.193189 149.86455 
L 611.193189 147.81577 
L 611.193189 146.449916 
L 611.193189 113.669428 
L 612.317963 113.669428 
L 612.317963 89.766989 
L 613.442736 89.766989 
L 613.442736 82.937721 
L 614.567509 82.937721 
L 614.567509 72.693819 
L 615.692282 72.693819 
L 615.692282 70.645038 
L 616.817055 70.645038 
L 616.817055 65.86455 
L 617.941829 65.86455 
L 617.941829 56.303575 
L 619.066602 56.303575 
L 619.066602 52.206014 
L 621.316148 52.206014 
L 621.316148 50.157233 
L 630.314334 50.157233 
L 630.314334 48.79138 
L 632.563881 48.79138 
L 632.563881 48.108453 
L 637.062974 48.108453 
L 637.062974 47.425526 
L 662.932758 47.425526 
L 662.932758 46.742599 
L 666.307078 46.742599 
L 666.307078 46.059672 
L 670.806171 46.059672 
L 670.806171 45.376745 
L 700.050275 45.376745 
L 700.050275 44.693819 
L 701.175048 44.693819 
L 701.175048 44.010892 
L 725.920059 44.010892 
L 725.920059 43.327965 
L 733.793471 43.327965 
L 733.793471 42.645038 
L 740.542111 42.645038 
L 740.542111 41.962111 
L 773.160535 41.962111 
L 773.160535 41.279184 
L 775.410081 41.279184 
L 775.410081 40.596258 
L 787.782587 40.596258 
L 787.782587 39.913331 
L 836.147836 39.913331 
L 836.147836 39.230404 
L 841.771702 39.230404 
L 841.771702 38.547477 
L 865.39194 38.547477 
L 865.39194 37.86455 
L 896.88559 37.86455 
L 896.88559 37.181623 
L 902.509456 37.181623 
L 902.509456 36.498697 
L 903.634229 36.498697 
L 903.634229 35.81577 
L 921.630601 35.81577 
L 921.630601 35.132843 
L 939.626973 35.132843 
L 939.626973 34.449916 
L 944.126066 34.449916 
L 944.126066 33.766989 
L 1001.489501 33.766989 
L 1001.489501 33.084063 
L 1023.984965 33.084063 
" style="fill:none;stroke:#ff7f0e;stroke-linecap:square;"/>
   </g>
   <g id="line2d_36">
    <path clip-path="url(#pa159f16c03)" d="M 608.943643 285.084063 
L 1023.984965 33.084063 
" style="fill:none;stroke:#000000;stroke-dasharray:5.55,2.4;stroke-dashoffset:0;stroke-width:1.5;"/>
   </g>
   <g id="patch_9">
    <path d="M 588.191577 297.684063 
L 588.191577 20.484063 
" style="fill:none;stroke:#000000;stroke-linecap:square;stroke-linejoin:miter;stroke-width:0.8;"/>
   </g>
   <g id="patch_10">
    <path d="M 1044.737031 297.684063 
L 1044.737031 20.484063 
" style="fill:none;stroke:#000000;stroke-linecap:square;stroke-linejoin:miter;stroke-width:0.8;"/>
   </g>
   <g id="patch_11">
    <path d="M 588.191577 297.684063 
L 1044.737031 297.684063 
" style="fill:none;stroke:#000000;stroke-linecap:square;stroke-linejoin:miter;stroke-width:0.8;"/>
   </g>
   <g id="patch_12">
    <path d="M 588.191577 20.484063 
L 1044.737031 20.484063 
" style="fill:none;stroke:#000000;stroke-linecap:square;stroke-linejoin:miter;stroke-width:0.8;"/>
   </g>
   <g id="text_33">
    <!-- ROC curve of different feature combinations on RPI369 -->
    <defs>
     <path d="M 14.796875 33.203125 
L 14.796875 34.90625 
Q 20.359375 36.53125 22.5 37.921875 
Q 24.65625 39.3125 26.21875 42.15625 
Q 27.78125 45.015625 27.78125 47.953125 
Q 27.78125 52 24.828125 54.90625 
Q 21.875 57.8125 17.484375 57.8125 
Q 10.640625 57.8125 5.859375 50.59375 
L 4.046875 51.21875 
Q 7.5625 59.375 13.0625 63.46875 
Q 18.5625 67.578125 25.296875 67.578125 
Q 32.171875 67.578125 36.640625 63.375 
Q 41.109375 59.1875 41.109375 53.5625 
Q 41.109375 49.90625 39.03125 46.5 
Q 36.96875 43.109375 32.515625 40.53125 
Q 38.234375 37.75 41.234375 33.671875 
Q 44.234375 29.59375 44.234375 23.4375 
Q 44.234375 13.09375 36.734375 5.828125 
Q 29.25 -1.421875 16.65625 -1.421875 
Q 8.25 -1.421875 4.390625 1.375 
Q 1.609375 3.328125 1.609375 6.390625 
Q 1.609375 8.640625 3.21875 10.21875 
Q 4.828125 11.8125 6.9375 11.8125 
Q 8.546875 11.8125 9.96875 11.140625 
Q 10.75 10.75 15.5 6.859375 
Q 20.265625 2.984375 24.421875 2.984375 
Q 28.03125 2.984375 30.609375 5.828125 
Q 33.203125 8.6875 33.203125 13.09375 
Q 33.203125 19.78125 28.515625 25.421875 
Q 23.828125 31.0625 14.796875 33.203125 
z
" id="TimesNewRomanPS-BoldMT-51"/>
    </defs>
    <g transform="translate(684.829538 14.484063)scale(0.11 -0.11)">
     <use xlink:href="#TimesNewRomanPS-BoldMT-82"/>
     <use x="72.216797" xlink:href="#TimesNewRomanPS-BoldMT-79"/>
     <use x="150" xlink:href="#TimesNewRomanPS-BoldMT-67"/>
     <use x="222.216797" xlink:href="#TimesNewRomanPS-BoldMT-32"/>
     <use x="247.216797" xlink:href="#TimesNewRomanPS-BoldMT-99"/>
     <use x="291.601562" xlink:href="#TimesNewRomanPS-BoldMT-117"/>
     <use x="347.216797" xlink:href="#TimesNewRomanPS-BoldMT-114"/>
     <use x="391.601562" xlink:href="#TimesNewRomanPS-BoldMT-118"/>
     <use x="441.601562" xlink:href="#TimesNewRomanPS-BoldMT-101"/>
     <use x="485.986328" xlink:href="#TimesNewRomanPS-BoldMT-32"/>
     <use x="510.986328" xlink:href="#TimesNewRomanPS-BoldMT-111"/>
     <use x="560.986328" xlink:href="#TimesNewRomanPS-BoldMT-102"/>
     <use x="594.287109" xlink:href="#TimesNewRomanPS-BoldMT-32"/>
     <use x="619.287109" xlink:href="#TimesNewRomanPS-BoldMT-100"/>
     <use x="674.902344" xlink:href="#TimesNewRomanPS-BoldMT-105"/>
     <use x="702.685547" xlink:href="#TimesNewRomanPS-BoldMT-102"/>
     <use x="735.986328" xlink:href="#TimesNewRomanPS-BoldMT-102"/>
     <use x="769.287109" xlink:href="#TimesNewRomanPS-BoldMT-101"/>
     <use x="813.671875" xlink:href="#TimesNewRomanPS-BoldMT-114"/>
     <use x="856.306641" xlink:href="#TimesNewRomanPS-BoldMT-101"/>
     <use x="900.691406" xlink:href="#TimesNewRomanPS-BoldMT-110"/>
     <use x="956.306641" xlink:href="#TimesNewRomanPS-BoldMT-116"/>
     <use x="989.607422" xlink:href="#TimesNewRomanPS-BoldMT-32"/>
     <use x="1014.607422" xlink:href="#TimesNewRomanPS-BoldMT-102"/>
     <use x="1047.908203" xlink:href="#TimesNewRomanPS-BoldMT-101"/>
     <use x="1092.292969" xlink:href="#TimesNewRomanPS-BoldMT-97"/>
     <use x="1142.292969" xlink:href="#TimesNewRomanPS-BoldMT-116"/>
     <use x="1175.59375" xlink:href="#TimesNewRomanPS-BoldMT-117"/>
     <use x="1231.208984" xlink:href="#TimesNewRomanPS-BoldMT-114"/>
     <use x="1273.84375" xlink:href="#TimesNewRomanPS-BoldMT-101"/>
     <use x="1318.228516" xlink:href="#TimesNewRomanPS-BoldMT-32"/>
     <use x="1343.228516" xlink:href="#TimesNewRomanPS-BoldMT-99"/>
     <use x="1387.613281" xlink:href="#TimesNewRomanPS-BoldMT-111"/>
     <use x="1437.613281" xlink:href="#TimesNewRomanPS-BoldMT-109"/>
     <use x="1520.914062" xlink:href="#TimesNewRomanPS-BoldMT-98"/>
     <use x="1576.529297" xlink:href="#TimesNewRomanPS-BoldMT-105"/>
     <use x="1604.3125" xlink:href="#TimesNewRomanPS-BoldMT-110"/>
     <use x="1659.927734" xlink:href="#TimesNewRomanPS-BoldMT-97"/>
     <use x="1709.927734" xlink:href="#TimesNewRomanPS-BoldMT-116"/>
     <use x="1743.228516" xlink:href="#TimesNewRomanPS-BoldMT-105"/>
     <use x="1771.011719" xlink:href="#TimesNewRomanPS-BoldMT-111"/>
     <use x="1821.011719" xlink:href="#TimesNewRomanPS-BoldMT-110"/>
     <use x="1876.626953" xlink:href="#TimesNewRomanPS-BoldMT-115"/>
     <use x="1915.542969" xlink:href="#TimesNewRomanPS-BoldMT-32"/>
     <use x="1940.542969" xlink:href="#TimesNewRomanPS-BoldMT-111"/>
     <use x="1990.542969" xlink:href="#TimesNewRomanPS-BoldMT-110"/>
     <use x="2046.158203" xlink:href="#TimesNewRomanPS-BoldMT-32"/>
     <use x="2071.158203" xlink:href="#TimesNewRomanPS-BoldMT-82"/>
     <use x="2143.375" xlink:href="#TimesNewRomanPS-BoldMT-80"/>
     <use x="2204.458984" xlink:href="#TimesNewRomanPS-BoldMT-73"/>
     <use x="2243.375" xlink:href="#TimesNewRomanPS-BoldMT-51"/>
     <use x="2293.375" xlink:href="#TimesNewRomanPS-BoldMT-54"/>
     <use x="2343.375" xlink:href="#TimesNewRomanPS-BoldMT-57"/>
    </g>
   </g>
   <g id="legend_2">
    <g id="patch_13">
     <path d="M 897.303906 294.184063 
L 1039.837031 294.184063 
Q 1041.237031 294.184063 1041.237031 292.784063 
L 1041.237031 263.792031 
Q 1041.237031 262.392031 1039.837031 262.392031 
L 897.303906 262.392031 
Q 895.903906 262.392031 895.903906 263.792031 
L 895.903906 292.784063 
Q 895.903906 294.184063 897.303906 294.184063 
z
" style="fill:#ffffff;opacity:0.8;stroke:#cccccc;stroke-linejoin:miter;"/>
    </g>
    <g id="line2d_37">
     <path d="M 898.703906 267.642031 
L 912.703906 267.642031 
" style="fill:none;stroke:#1f77b4;stroke-linecap:square;"/>
    </g>
    <g id="line2d_38"/>
    <g id="text_34">
     <!-- with side information (area = 0.9677) -->
     <g transform="translate(918.303906 270.092031)scale(0.07 -0.07)">
      <use xlink:href="#TimesNewRomanPS-BoldMT-119"/>
      <use x="72.216797" xlink:href="#TimesNewRomanPS-BoldMT-105"/>
      <use x="100" xlink:href="#TimesNewRomanPS-BoldMT-116"/>
      <use x="133.300781" xlink:href="#TimesNewRomanPS-BoldMT-104"/>
      <use x="188.916016" xlink:href="#TimesNewRomanPS-BoldMT-32"/>
      <use x="213.916016" xlink:href="#TimesNewRomanPS-BoldMT-115"/>
      <use x="252.832031" xlink:href="#TimesNewRomanPS-BoldMT-105"/>
      <use x="280.615234" xlink:href="#TimesNewRomanPS-BoldMT-100"/>
      <use x="336.230469" xlink:href="#TimesNewRomanPS-BoldMT-101"/>
      <use x="380.615234" xlink:href="#TimesNewRomanPS-BoldMT-32"/>
      <use x="405.615234" xlink:href="#TimesNewRomanPS-BoldMT-105"/>
      <use x="433.398438" xlink:href="#TimesNewRomanPS-BoldMT-110"/>
      <use x="489.013672" xlink:href="#TimesNewRomanPS-BoldMT-102"/>
      <use x="522.314453" xlink:href="#TimesNewRomanPS-BoldMT-111"/>
      <use x="572.314453" xlink:href="#TimesNewRomanPS-BoldMT-114"/>
      <use x="616.699219" xlink:href="#TimesNewRomanPS-BoldMT-109"/>
      <use x="700" xlink:href="#TimesNewRomanPS-BoldMT-97"/>
      <use x="750" xlink:href="#TimesNewRomanPS-BoldMT-116"/>
      <use x="783.300781" xlink:href="#TimesNewRomanPS-BoldMT-105"/>
      <use x="811.083984" xlink:href="#TimesNewRomanPS-BoldMT-111"/>
      <use x="861.083984" xlink:href="#TimesNewRomanPS-BoldMT-110"/>
      <use x="916.699219" xlink:href="#TimesNewRomanPS-BoldMT-32"/>
      <use x="941.699219" xlink:href="#TimesNewRomanPS-BoldMT-40"/>
      <use x="975" xlink:href="#TimesNewRomanPS-BoldMT-97"/>
      <use x="1025" xlink:href="#TimesNewRomanPS-BoldMT-114"/>
      <use x="1067.634766" xlink:href="#TimesNewRomanPS-BoldMT-101"/>
      <use x="1112.019531" xlink:href="#TimesNewRomanPS-BoldMT-97"/>
      <use x="1162.019531" xlink:href="#TimesNewRomanPS-BoldMT-32"/>
      <use x="1187.019531" xlink:href="#TimesNewRomanPS-BoldMT-61"/>
      <use x="1244.001953" xlink:href="#TimesNewRomanPS-BoldMT-32"/>
      <use x="1269.001953" xlink:href="#TimesNewRomanPS-BoldMT-48"/>
      <use x="1319.001953" xlink:href="#TimesNewRomanPS-BoldMT-46"/>
      <use x="1344.001953" xlink:href="#TimesNewRomanPS-BoldMT-57"/>
      <use x="1394.001953" xlink:href="#TimesNewRomanPS-BoldMT-54"/>
      <use x="1444.001953" xlink:href="#TimesNewRomanPS-BoldMT-55"/>
      <use x="1494.001953" xlink:href="#TimesNewRomanPS-BoldMT-55"/>
      <use x="1544.001953" xlink:href="#TimesNewRomanPS-BoldMT-41"/>
     </g>
    </g>
    <g id="line2d_39">
     <path d="M 898.703906 277.539375 
L 912.703906 277.539375 
" style="fill:none;stroke:#ff7f0e;stroke-linecap:square;"/>
    </g>
    <g id="line2d_40"/>
    <g id="text_35">
     <!-- without side information (area = 0.9655) -->
     <defs>
      <path d="M 15.234375 66.21875 
L 46.234375 66.21875 
L 41.3125 53.609375 
L 15.234375 53.609375 
L 12.75 47.015625 
Q 29.59375 46.390625 38.671875 38.625 
Q 46.140625 32.234375 46.140625 22.703125 
Q 46.140625 16.609375 42.671875 10.765625 
Q 39.203125 4.9375 32.90625 1.78125 
Q 26.609375 -1.375 19.09375 -1.375 
Q 10.984375 -1.375 6.640625 1.65625 
Q 3.609375 3.8125 3.609375 6.546875 
Q 3.609375 8.640625 5.1875 10.25 
Q 6.78125 11.859375 8.890625 11.859375 
Q 10.796875 11.859375 12.75 11.078125 
Q 14.703125 10.296875 19.4375 6.984375 
Q 22.40625 4.9375 24.5625 4.15625 
Q 26.078125 3.5625 27.984375 3.5625 
Q 31.984375 3.5625 34.78125 6.484375 
Q 37.59375 9.421875 37.59375 13.53125 
Q 37.59375 22.125 29 27.484375 
Q 20.40625 32.859375 7.328125 32.859375 
Q 6 32.859375 3.375 32.8125 
z
" id="TimesNewRomanPS-BoldMT-53"/>
     </defs>
     <g transform="translate(918.303906 279.989375)scale(0.07 -0.07)">
      <use xlink:href="#TimesNewRomanPS-BoldMT-119"/>
      <use x="72.216797" xlink:href="#TimesNewRomanPS-BoldMT-105"/>
      <use x="100" xlink:href="#TimesNewRomanPS-BoldMT-116"/>
      <use x="133.300781" xlink:href="#TimesNewRomanPS-BoldMT-104"/>
      <use x="188.916016" xlink:href="#TimesNewRomanPS-BoldMT-111"/>
      <use x="238.916016" xlink:href="#TimesNewRomanPS-BoldMT-117"/>
      <use x="294.53125" xlink:href="#TimesNewRomanPS-BoldMT-116"/>
      <use x="327.832031" xlink:href="#TimesNewRomanPS-BoldMT-32"/>
      <use x="352.832031" xlink:href="#TimesNewRomanPS-BoldMT-115"/>
      <use x="391.748047" xlink:href="#TimesNewRomanPS-BoldMT-105"/>
      <use x="419.53125" xlink:href="#TimesNewRomanPS-BoldMT-100"/>
      <use x="475.146484" xlink:href="#TimesNewRomanPS-BoldMT-101"/>
      <use x="519.53125" xlink:href="#TimesNewRomanPS-BoldMT-32"/>
      <use x="544.53125" xlink:href="#TimesNewRomanPS-BoldMT-105"/>
      <use x="572.314453" xlink:href="#TimesNewRomanPS-BoldMT-110"/>
      <use x="627.929688" xlink:href="#TimesNewRomanPS-BoldMT-102"/>
      <use x="661.230469" xlink:href="#TimesNewRomanPS-BoldMT-111"/>
      <use x="711.230469" xlink:href="#TimesNewRomanPS-BoldMT-114"/>
      <use x="755.615234" xlink:href="#TimesNewRomanPS-BoldMT-109"/>
      <use x="838.916016" xlink:href="#TimesNewRomanPS-BoldMT-97"/>
      <use x="888.916016" xlink:href="#TimesNewRomanPS-BoldMT-116"/>
      <use x="922.216797" xlink:href="#TimesNewRomanPS-BoldMT-105"/>
      <use x="950" xlink:href="#TimesNewRomanPS-BoldMT-111"/>
      <use x="1000" xlink:href="#TimesNewRomanPS-BoldMT-110"/>
      <use x="1055.615234" xlink:href="#TimesNewRomanPS-BoldMT-32"/>
      <use x="1080.615234" xlink:href="#TimesNewRomanPS-BoldMT-40"/>
      <use x="1113.916016" xlink:href="#TimesNewRomanPS-BoldMT-97"/>
      <use x="1163.916016" xlink:href="#TimesNewRomanPS-BoldMT-114"/>
      <use x="1206.550781" xlink:href="#TimesNewRomanPS-BoldMT-101"/>
      <use x="1250.935547" xlink:href="#TimesNewRomanPS-BoldMT-97"/>
      <use x="1300.935547" xlink:href="#TimesNewRomanPS-BoldMT-32"/>
      <use x="1325.935547" xlink:href="#TimesNewRomanPS-BoldMT-61"/>
      <use x="1382.917969" xlink:href="#TimesNewRomanPS-BoldMT-32"/>
      <use x="1407.917969" xlink:href="#TimesNewRomanPS-BoldMT-48"/>
      <use x="1457.917969" xlink:href="#TimesNewRomanPS-BoldMT-46"/>
      <use x="1482.917969" xlink:href="#TimesNewRomanPS-BoldMT-57"/>
      <use x="1532.917969" xlink:href="#TimesNewRomanPS-BoldMT-54"/>
      <use x="1582.917969" xlink:href="#TimesNewRomanPS-BoldMT-53"/>
      <use x="1632.917969" xlink:href="#TimesNewRomanPS-BoldMT-53"/>
      <use x="1682.917969" xlink:href="#TimesNewRomanPS-BoldMT-41"/>
     </g>
    </g>
    <g id="line2d_41">
     <path d="M 898.703906 287.436719 
L 912.703906 287.436719 
" style="fill:none;stroke:#000000;stroke-dasharray:5.55,2.4;stroke-dashoffset:0;stroke-width:1.5;"/>
    </g>
    <g id="line2d_42"/>
    <g id="text_36">
     <!-- Luck -->
     <g transform="translate(918.303906 289.886719)scale(0.07 -0.07)">
      <use xlink:href="#TimesNewRomanPS-BoldMT-76"/>
      <use x="66.699219" xlink:href="#TimesNewRomanPS-BoldMT-117"/>
      <use x="122.314453" xlink:href="#TimesNewRomanPS-BoldMT-99"/>
      <use x="166.699219" xlink:href="#TimesNewRomanPS-BoldMT-107"/>
     </g>
    </g>
   </g>
  </g>
 </g>
 <defs>
  <clipPath id="pb04126cc39">
   <rect height="277.2" width="456.545455" x="40.337031" y="20.484063"/>
  </clipPath>
  <clipPath id="pa159f16c03">
   <rect height="277.2" width="456.545455" x="588.191577" y="20.484063"/>
  </clipPath>
 </defs>
</svg>
